<?xml version="1.0" encoding="UTF-8" standalone="no"?>
<!-- Created with Inkscape (http://www.inkscape.org/) -->

<svg
   xmlns:dc="http://purl.org/dc/elements/1.1/"
   xmlns:cc="http://creativecommons.org/ns#"
   xmlns:rdf="http://www.w3.org/1999/02/22-rdf-syntax-ns#"
   xmlns:svg="http://www.w3.org/2000/svg"
   xmlns="http://www.w3.org/2000/svg"
   xmlns:sodipodi="http://sodipodi.sourceforge.net/DTD/sodipodi-0.dtd"
   xmlns:inkscape="http://www.inkscape.org/namespaces/inkscape"
   width="202mm"
   height="41mm"
   viewBox="0 0 202 41"
   version="1.1"
   id="svg1177"
   inkscape:version="0.92.0 r15299"
   sodipodi:docname="crocodile1.svg">
  <defs
     id="defs1171" />
  <sodipodi:namedview
     id="base"
     pagecolor="#ffffff"
     bordercolor="#666666"
     borderopacity="1.0"
     inkscape:pageopacity="0.0"
     inkscape:pageshadow="2"
     inkscape:zoom="1.4"
     inkscape:cx="589.13319"
     inkscape:cy="-20.637256"
     inkscape:document-units="mm"
     inkscape:current-layer="layer1"
     showgrid="false"
     inkscape:window-width="3840"
     inkscape:window-height="2081"
     inkscape:window-x="-9"
     inkscape:window-y="-9"
     inkscape:window-maximized="1"
     showborder="true" />
  <metadata
     id="metadata1174">
    <rdf:RDF>
      <cc:Work
         rdf:about="">
        <dc:format>image/svg+xml</dc:format>
        <dc:type
           rdf:resource="http://purl.org/dc/dcmitype/StillImage" />
        <dc:title></dc:title>
      </cc:Work>
    </rdf:RDF>
  </metadata>
  <g
     inkscape:label="Layer 1"
     inkscape:groupmode="layer"
     id="layer1"
     transform="translate(0,-256)">
    <g
       style="display:inline"
       inkscape:export-ydpi="164.55727"
       inkscape:export-xdpi="164.55727"
       id="g1152"
       transform="translate(-75.437727,67.029381)"
       inkscape:export-filename="C:\wamp\www\SANGOO\html\img\crocodile1.png">
      <path
         id="path1146"
         d="m 269.31345,190.24795 c -0.69574,0.0566 -0.99218,0.82321 -0.99218,0.82321 l -0.87384,1.52704 c -1.16314,0.58582 -2.7736,1.32113 -4.59092,2.11821 -0.50602,0.0575 -0.99468,0.17266 -1.32085,0.35502 -0.5007,0.11639 -0.93208,0.25781 -1.1524,0.42116 -0.21166,0.15695 -0.31824,0.30464 -0.35811,0.44494 -0.32991,0.14001 -0.65363,0.2783 -0.98962,0.41961 -0.42741,-0.10516 -0.90752,-0.0903 -1.29344,0.19585 -0.23641,0.17528 -0.54036,0.42449 -0.84233,0.69454 -1.30958,0.54172 -2.62935,1.08089 -3.90779,1.59628 -0.47437,0.111 -0.95097,0.2488 -1.11929,0.37362 -0.0602,0.0446 -0.11319,0.0922 -0.16846,0.13901 -1.12372,0.44916 -2.18443,0.87008 -3.1745,1.25677 -0.73448,0.0296 -1.53503,0.18368 -1.93477,0.48007 -0.19552,0.14499 -0.36576,0.3034 -0.50641,0.46509 -1.89497,0.72071 -3.15317,1.16824 -3.27268,1.15187 -0.81474,-0.11157 -1.41587,0.53005 -2.36834,0.87798 l -2.68769,0.98186 c -0.43641,0.15943 -1.35287,0.32297 -1.35287,0.32297 0,0 -2.13421,0.65303 -2.64583,0.51987 -0.36703,-0.0955 -0.58725,0.11037 -0.88575,0.16433 -0.9117,0.1648 -1.82631,0.31744 -2.50529,0.40411 -1.78484,-1.21128 -3.50126,-0.70322 -4.83896,1.002 -0.0901,-0.0756 -0.25228,-0.15995 -0.53382,-0.25993 -3.29393,-1.16974 -4.87056,-0.96699 -6.05647,0.78497 -1.3833,-0.074 -5.05344,2.24534 -5.05344,2.24534 -0.76356,0.33416 -1.87986,1.14665 -2.96778,1.98747 -0.289,0.077 -0.54263,0.17799 -0.71728,0.30748 -0.23469,0.17403 -0.42614,0.36692 -0.57878,0.56224 -0.19543,0.0324 -0.4181,0.12646 -0.62373,0.26355 -0.37164,0.24816 -0.61674,0.58791 -0.59685,0.82734 -0.2296,0.17075 -0.43203,0.31501 -0.5793,0.40359 -0.6599,0.0516 -1.33099,0.19848 -1.68569,0.46147 -0.42108,0.31222 -0.72001,0.68341 -0.86299,1.0232 -0.11205,0.0673 -0.27805,0.16928 -0.39584,0.24029 -0.39344,-0.1057 -0.83124,-0.1613 -1.23405,-0.0894 -0.44346,0.0791 -0.82827,0.69013 -1.07537,0.87333 -0.48815,0.36196 -0.81859,0.80486 -0.92347,1.18391 -0.0822,0.0502 -0.14275,0.0866 -0.22583,0.13746 -0.98903,0.0243 -2.21744,0.2235 -2.68612,0.57102 -0.61646,0.45708 -0.61331,0.95633 -0.43048,1.34256 -0.17333,0.10669 -0.34309,0.21105 -0.51726,0.31832 -0.80285,-0.24561 -2.03192,-0.20024 -2.61536,0.5302 -0.49469,0.61934 -1.26465,1.46435 -1.72185,2.14561 -10.55331,7.60438 33.23061,6.30537 40.44967,3.91043 0,0 24.05483,-5.46493 42.33333,-7.88023 0.79108,-0.39595 0.92536,-2.74174 0.46974,-2.81068 -0.6755,-0.39374 -1.27772,-0.0234 -2.12854,0.35709 l -1.62161,-0.26304 c -0.40095,-0.48673 -0.73482,-0.92294 -0.73482,-0.92294 l -0.5116,0.90382 -0.82942,-0.0946 -0.53382,-0.69556 c -0.09,0.3601 -0.0717,0.59021 -0.21394,0.68368 -0.25464,0.16736 -0.70903,-0.003 -0.98288,0.0661 l -0.93792,-1.00717 c -0.20169,0.47889 -0.0603,0.6424 -0.50334,0.98599 l -1.34668,-0.0568 -0.40206,-0.66456 c -0.34674,0.90411 -0.98335,0.5977 -1.52961,0.67076 l -0.48368,-0.76997 -0.48371,0.75551 -2.08669,-0.0315 c -0.33965,-0.37984 -0.85522,-1.20567 -1.50173,-1.69188 -0.23026,0.48077 -0.36356,1.29007 -0.52657,1.66088 l -2.8639,-0.0444 c -0.37629,-0.73943 -0.0483,-1.7118 -0.29403,-1.84744 0.0332,-0.12308 -0.76468,1.03934 -1.28003,1.82315 l -2.6293,-0.0403 c -0.0295,-0.88497 -1.11725,-1.91823 -1.11725,-1.91823 l -0.4594,1.89498 -2.24174,-0.0351 -1.15083,-1.48622 c 0.27099,0.60845 -0.79737,1.45624 -0.79737,1.45624 l -2.80654,-0.0424 -0.63458,-1.00976 -0.63304,0.99012 -5.23534,-0.0796 c 0,0 2.01322,-1.41894 2.87219,-1.71979 0.41028,-0.14372 0.59221,0.55921 0.92913,0.33073 0.2956,-1.11306 0.56957,-1.30253 1.25781,-1.72083 0.37488,-0.13574 0.99443,-0.39225 1.4061,-0.5643 0.7004,1.14863 1.2909,2.51137 1.42988,1.87843 l 1.00827,-2.99051 c 0.007,-0.004 0.0127,-0.007 0.019,-0.0104 0.16147,0.002 2.926,1.21355 2.80241,0.9338 -0.2363,-0.53464 -0.24424,-1.51847 -0.19844,-2.28513 0.27115,-0.14625 0.54925,-0.30161 0.82526,-0.45372 l 1.7167,1.20561 c 0.69845,0.39657 0.83381,-1.10478 0.82889,-2.64687 0.50128,-0.29128 1.00105,-0.58387 1.50791,-0.88573 0.62696,0.73368 1.26897,1.43684 1.57562,1.5322 0.48027,0.14934 0.28845,-1.35808 0.19328,-2.59415 0.3929,-0.23975 0.78182,-0.48411 1.17356,-0.72657 0.62941,0.53303 1.41478,1.25219 1.8402,2.19366 0.90673,2.00674 0.87577,-3.19422 1.07487,-3.73879 0.052,-0.14306 0.0601,-0.23854 0.0537,-0.31988 0.32541,-0.20776 0.65021,-0.41432 0.97049,-0.62063 0.52115,0.43856 0.92117,0.3283 1.41129,1.33687 0.34869,0.42117 0.74266,1.29868 1.01129,0.66146 0.39367,-0.93413 1.28383,-2.59338 0.60256,-3.69022 0.2857,-0.18943 0.93109,-0.89987 1.20716,-1.08417 0.28252,0.19704 0.62942,0.36116 1.06143,0.46974 0.28287,0.071 1.19875,1.06645 1.50222,1.19786 0.21461,-1.11762 0.013,-2.26253 -0.2904,-3.20704 0.21857,-0.14881 0.47008,-0.31641 0.67746,-0.45837 l 2.60139,0.86713 c -0.2821,-0.96178 -0.4576,-1.69327 -0.56687,-2.27531 1.25029,-0.87575 2.199,-1.55526 2.34145,-1.68207 0.77759,-0.69259 0.35473,-2.44153 0.0868,-3.44217 -0.14517,-0.54343 -0.97192,-0.0653 -1.99522,-0.63872 -0.31774,-0.17801 -0.59179,-0.23259 -0.82373,-0.21394 z"
         style="opacity:1;fill:#424242;fill-opacity:1;stroke:none;stroke-width:0.14137436;stroke-linecap:round;stroke-linejoin:round;stroke-miterlimit:4;stroke-dasharray:none;stroke-opacity:0.96713616"
         inkscape:connector-curvature="0"
         sodipodi:nodetypes="cccccccccccccccccccccccccccccccccccccccccccccccccccccccccccccccccccccccccccccccccccccccccccccccccccccccccccccccccc" />
      <path
         inkscape:export-ydpi="397.07605"
         inkscape:export-xdpi="397.07605"
         inkscape:export-filename="C:\Users\ALVEARE\Desktop\crocodile.png"
         sodipodi:nodetypes="sscss"
         inkscape:connector-curvature="0"
         id="path1148"
         d="m 224.31848,207.98686 c 0.37439,0.56248 -0.22233,0.86278 -1.64486,1.01436 -0.85929,0.0913 -1.85655,0.257 -2.83424,-10e-4 0.51954,-0.76058 1.16506,-1.24586 2.62857,-1.83202 0.99041,-0.39669 1.22876,-0.11552 1.85053,0.81879 z"
         style="opacity:1;fill:#fffffa;fill-opacity:0.96862745;fill-rule:nonzero;stroke:none;stroke-width:0.14137442;stroke-linecap:round;stroke-linejoin:miter;stroke-miterlimit:4;stroke-dasharray:none;stroke-dashoffset:0;stroke-opacity:0.56470588;paint-order:normal" />
      <path
         inkscape:export-ydpi="397.07605"
         inkscape:export-xdpi="397.07605"
         inkscape:export-filename="C:\Users\ALVEARE\Desktop\crocodile.png"
         style="opacity:1;fill:#424242;fill-opacity:1;fill-rule:nonzero;stroke:none;stroke-width:0.15132354;stroke-linecap:round;stroke-linejoin:miter;stroke-miterlimit:4;stroke-dasharray:none;stroke-dashoffset:0;stroke-opacity:0.56470588;paint-order:normal"
         d="m 223.32114,208.87198 c -0.27906,-0.12604 -0.99311,-0.47858 -0.53059,-0.77644 0.64426,-0.4149 -0.0644,-0.89667 0.33564,-0.94111 0.35542,0.2111 0.42202,0.73017 0.42202,0.73017 0,0 0.0759,0.83431 -0.22707,0.98738 z"
         id="path1150"
         inkscape:connector-curvature="0"
         sodipodi:nodetypes="csccc" />
    </g>
    <path
       sodipodi:nodetypes="cssc"
       inkscape:connector-curvature="0"
       id="path4494"
       d="m 104.14126,289.20889 c -7.474307,4.25483 -12.312301,-5.34848 -21.589677,1.01676 -9.370993,6.42948 -24.713984,9.03711 -33.474862,0.91587 -4.715313,-4.37104 -48.40444019,-1.65749 -48.40444019,-1.65749"
       style="fill:none;stroke:#30a4c3;stroke-width:0.40000001;stroke-linecap:butt;stroke-linejoin:miter;stroke-miterlimit:4;stroke-dasharray:none;stroke-opacity:1"
       inkscape:export-filename="C:\wamp\www\SANGOO\html\img\crocodile1.png"
       inkscape:export-xdpi="164.55727"
       inkscape:export-ydpi="164.55727" />
  </g>
</svg>
