<?xml version="1.0" encoding="UTF-8"?>
<svg width="154px" height="132px" viewBox="0 0 154 132" version="1.1" xmlns="http://www.w3.org/2000/svg" xmlns:xlink="http://www.w3.org/1999/xlink">
    <!-- Generator: Sketch 55.2 (78181) - https://sketchapp.com -->
    <title>Group 5</title>
    <desc>Created with Sketch.</desc>
    <defs>
        <linearGradient x1="50%" y1="0%" x2="50%" y2="100%" id="linearGradient-1">
            <stop stop-color="#000000" stop-opacity="0" offset="0%"></stop>
            <stop stop-color="#000000" stop-opacity="0.479130245" offset="100%"></stop>
        </linearGradient>
    </defs>
    <g id="Page-1" stroke="none" stroke-width="1" fill="none" fill-rule="evenodd">
        <g id="Desktop-HD-Copy" transform="translate(-285.000000, -1756.000000)">
            <g id="Group-5" transform="translate(257.000000, 1726.000000)">
                <path d="M110.5,31.5714011 L141.853829,49.6735428 C151.445262,55.2111594 157.353829,65.445097 157.353829,76.5203303 L157.353829,112.724614 C157.353829,123.799847 151.445262,134.033784 141.853829,139.571401 L110.5,157.673543 C100.908567,163.211159 89.0914334,163.211159 79.5,157.673543 L48.1461709,139.571401 C38.5547375,134.033784 32.6461709,123.799847 32.6461709,112.724614 L32.6461709,76.5203303 C32.6461709,65.445097 38.5547375,55.2111594 48.1461709,49.6735428 L79.5,31.5714011 C89.0914334,26.0337845 100.908567,26.0337845 110.5,31.5714011 Z" id="Polygon-Copy" fill="url(#linearGradient-1)" opacity="0.115955171" transform="translate(95.000000, 94.622472) rotate(23.000000) translate(-95.000000, -94.622472) "></path>
                <path d="M137.453932,47.5253334 L162.745583,62.127475 C172.337017,67.6650917 178.245583,77.8990293 178.245583,88.9742625 L178.245583,118.178546 C178.245583,129.253779 172.337017,139.487717 162.745583,145.025333 L137.453932,159.627475 C127.862499,165.165092 116.045366,165.165092 106.453932,159.627475 L81.162281,145.025333 C71.5708476,139.487717 65.662281,129.253779 65.662281,118.178546 L65.662281,88.9742625 C65.662281,77.8990293 71.5708476,67.6650917 81.162281,62.127475 L106.453932,47.5253334 C116.045366,41.9877167 127.862499,41.9877167 137.453932,47.5253334 Z" id="Polygon" fill="#FFDC02" transform="translate(121.953932, 103.576404) rotate(23.000000) translate(-121.953932, -103.576404) "></path>
                <path d="M140.299009,108.627481 C141.194347,108.627481 141.918507,108.969811 142.471509,109.654481 C143.024512,110.339151 143.301009,111.260809 143.301009,112.419481 C143.301009,114.052156 142.326686,115.421476 140.378009,116.527481 C138.587334,117.528153 136.559687,118.331312 134.295009,118.936981 C132.030331,119.542651 129.87102,119.845481 127.817009,119.845481 C121.602312,119.845481 116.678027,118.054833 113.044009,114.473481 C109.409991,110.89213 107.593009,105.994179 107.593009,99.7794813 C107.593009,95.8294615 108.383001,92.3271632 109.963009,89.2724813 C111.543017,86.2177993 113.768162,83.847823 116.638509,82.1624813 C119.508857,80.4771395 122.760991,79.6344813 126.395009,79.6344813 C129.871027,79.6344813 132.89933,80.3981403 135.480009,81.9254813 C138.060689,83.4528222 140.062002,85.612134 141.484009,88.4034813 C142.906016,91.1948286 143.617009,94.4864623 143.617009,98.2784813 C143.617009,100.543159 142.616353,101.675481 140.615009,101.675481 L117.310009,101.675481 C117.626011,105.309499 118.653001,107.982306 120.391009,109.693981 C122.129018,111.405656 124.656993,112.261481 127.975009,112.261481 C129.660351,112.261481 131.14817,112.050817 132.438509,111.629481 C133.728849,111.208146 135.190334,110.628818 136.823009,109.891481 C138.403017,109.04881 139.561672,108.627481 140.299009,108.627481 Z M126.632009,86.5864813 C123.945996,86.5864813 121.799851,87.4291395 120.193509,89.1144813 C118.587168,90.799823 117.626011,93.2224655 117.310009,96.3824813 L135.164009,96.3824813 C135.058675,93.1697985 134.268683,90.7339896 132.794009,89.0749813 C131.319335,87.415973 129.265356,86.5864813 126.632009,86.5864813 Z" id="e" fill="#FFFFFF" fill-rule="nonzero"></path>
            </g>
        </g>
    </g>
</svg>