<?xml version="1.0" encoding="UTF-8" standalone="no"?>
<svg
   xmlns:dc="http://purl.org/dc/elements/1.1/"
   xmlns:cc="http://creativecommons.org/ns#"
   xmlns:rdf="http://www.w3.org/1999/02/22-rdf-syntax-ns#"
   xmlns:svg="http://www.w3.org/2000/svg"
   xmlns="http://www.w3.org/2000/svg"
   xmlns:sodipodi="http://sodipodi.sourceforge.net/DTD/sodipodi-0.dtd"
   xmlns:inkscape="http://www.inkscape.org/namespaces/inkscape"
   width="140px"
   height="143px"
   viewBox="0 0 140 143"
   version="1.1"
   id="svg32"
   sodipodi:docname="icon_01a.svg"
   inkscape:version="0.92.4 (5da689c313, 2019-01-14)">
  <metadata
     id="metadata36">
    <rdf:RDF>
      <cc:Work
         rdf:about="">
        <dc:format>image/svg+xml</dc:format>
        <dc:type
           rdf:resource="http://purl.org/dc/dcmitype/StillImage" />
        <dc:title>icon-5</dc:title>
      </cc:Work>
    </rdf:RDF>
  </metadata>
  <sodipodi:namedview
     pagecolor="#ffffff"
     bordercolor="#666666"
     borderopacity="1"
     objecttolerance="10"
     gridtolerance="10"
     guidetolerance="10"
     inkscape:pageopacity="0"
     inkscape:pageshadow="2"
     inkscape:window-width="3200"
     inkscape:window-height="1721"
     id="namedview34"
     showgrid="false"
     inkscape:zoom="4.6678937"
     inkscape:cx="52.541522"
     inkscape:cy="130.10146"
     inkscape:window-x="-9"
     inkscape:window-y="2151"
     inkscape:window-maximized="1"
     inkscape:current-layer="svg32" />
  <!-- Generator: Sketch 55.1 (78136) - https://sketchapp.com -->
  <title
     id="title2">icon-5</title>
  <desc
     id="desc4">Created with Sketch.</desc>
  <defs
     id="defs11">
    <linearGradient
       x1="98.012229"
       y1="38.932289"
       x2="98.012229"
       y2="168.39957"
       id="linearGradient-1"
       gradientTransform="matrix(0.8866642,0.37636662,-0.40564389,0.95563712,22.556505,-57.975754)"
       gradientUnits="userSpaceOnUse">
      <stop
         stop-color="#000000"
         stop-opacity="0"
         offset="0%"
         id="stop6" />
      <stop
         stop-color="#000000"
         stop-opacity="0.479130245"
         offset="100%"
         id="stop8" />
    </linearGradient>
  </defs>
  <g
     id="Group"
     transform="matrix(1.4530147,0,0,1.4530147,32.366919,31.106191)"
     style="fill:#5c5c5c;fill-opacity:1;fill-rule:nonzero;stroke:none;stroke-width:1">
    <path
       d="m 33.3,39.8 c 0.5,-0.6 0.3,-1.5 -0.3,-2 l -5.7,-4.2 v -5.8 c 0,-0.8 -0.6,-1.4 -1.4,-1.4 -0.8,0 -1.4,0.6 -1.4,1.4 v 5.8 l -5.7,4.2 c -0.6,0.5 -0.8,1.4 -0.3,2 0.5,0.6 1.4,0.8 2,0.3 l 5.4,-4 5.4,4 c 0.3,0.2 0.6,0.3 0.9,0.3 0.4,0 0.8,-0.2 1.1,-0.6 z"
       id="Path"
       inkscape:connector-curvature="0"
       style="fill:#5c5c5c;fill-opacity:1" />
    <path
       d="m 25.9,12.8 c 3.5,0 6.3,-2.8 6.3,-6.3 0,-3.5 -2.8,-6.3 -6.3,-6.3 -3.5,0 -6.3,2.8 -6.3,6.3 0,3.5 2.8,6.3 6.3,6.3 z m 0,-9.7 c 1.9,0 3.4,1.5 3.4,3.4 0,1.9 -1.5,3.4 -3.4,3.4 -1.9,0 -3.4,-1.5 -3.4,-3.4 0,-1.9 1.5,-3.4 3.4,-3.4 z"
       id="Shape"
       inkscape:connector-curvature="0"
       style="fill:#5c5c5c;fill-opacity:1" />
    <path
       d="M 17.8,23.7 H 34 c 0.8,0 1.4,-0.6 1.4,-1.4 V 18.7 C 35.4,16.1 33.3,14 30.7,14 h -9.6 c -2.6,0 -4.7,2.1 -4.7,4.7 v 3.6 c -0.1,0.8 0.6,1.4 1.4,1.4 z m 14.7,-5 v 2.1 h -5.2 v -4 h 3.4 c 1,0.1 1.8,0.9 1.8,1.9 z m -13.3,0 c 0,-1 0.8,-1.8 1.8,-1.8 h 3.4 v 4 h -5.2 z"
       id="path17"
       inkscape:connector-curvature="0"
       style="fill:#5c5c5c;fill-opacity:1" />
    <path
       d="m 10.1,44.5 c 3.5,0 6.3,-2.8 6.3,-6.3 0,-3.5 -2.8,-6.3 -6.3,-6.3 -3.5,0 -6.3,2.8 -6.3,6.3 0,3.5 2.8,6.3 6.3,6.3 z m 0,-9.7 c 1.9,0 3.4,1.5 3.4,3.4 0,1.9 -1.5,3.4 -3.4,3.4 -1.9,0 -3.4,-1.5 -3.4,-3.4 0,-1.9 1.5,-3.4 3.4,-3.4 z"
       id="path19"
       inkscape:connector-curvature="0"
       style="fill:#5c5c5c;fill-opacity:1" />
    <path
       d="M 14.9,45.8 H 5.3 c -2.6,0 -4.7,2.1 -4.7,4.7 V 54 c 0,0.8 0.6,1.4 1.4,1.4 h 16.2 c 0.8,0 1.4,-0.6 1.4,-1.4 v -3.6 c 0,-2.5 -2.1,-4.6 -4.7,-4.6 z M 3.4,50.5 c 0,-1 0.8,-1.8 1.8,-1.8 h 3.4 v 4 H 3.4 Z m 13.3,2.1 h -5.2 v -4 h 3.4 c 1,0 1.8,0.8 1.8,1.8 z"
       id="path21"
       inkscape:connector-curvature="0"
       style="fill:#5c5c5c;fill-opacity:1" />
    <path
       d="m 41.7,44.5 c 3.5,0 6.3,-2.8 6.3,-6.3 0,-3.5 -2.8,-6.3 -6.3,-6.3 -3.5,0 -6.3,2.8 -6.3,6.3 0,3.5 2.8,6.3 6.3,6.3 z m 0,-9.7 c 1.9,0 3.4,1.5 3.4,3.4 0,1.9 -1.5,3.4 -3.4,3.4 -1.9,0 -3.4,-1.5 -3.4,-3.4 -0.1,-1.9 1.5,-3.4 3.4,-3.4 z"
       id="path23"
       inkscape:connector-curvature="0"
       style="fill:#5c5c5c;fill-opacity:1" />
    <path
       d="m 46.5,45.8 h -9.6 c -2.6,0 -4.7,2.1 -4.7,4.7 V 54 c 0,0.8 0.6,1.4 1.4,1.4 h 16.2 c 0.8,0 1.4,-0.6 1.4,-1.4 v -3.6 c 0,-2.5 -2.1,-4.6 -4.7,-4.6 z M 35,50.5 c 0,-1 0.8,-1.8 1.8,-1.8 h 3.4 v 4 H 35 Z m 13.3,2.1 h -5.2 v -4 h 3.4 c 1,0 1.8,0.8 1.8,1.8 z"
       id="path25"
       inkscape:connector-curvature="0"
       style="fill:#5c5c5c;fill-opacity:1" />
  </g>
</svg>
