<?xml version="1.0" encoding="UTF-8"?>
<svg width="140px" height="143px" viewBox="0 0 140 143" version="1.1" xmlns="http://www.w3.org/2000/svg" xmlns:xlink="http://www.w3.org/1999/xlink">
    <!-- Generator: Sketch 55.1 (78136) - https://sketchapp.com -->
    <title>icon-5</title>
    <desc>Created with Sketch.</desc>
    <defs>
        <linearGradient x1="50%" y1="0%" x2="50%" y2="100%" id="linearGradient-1">
            <stop stop-color="#000000" stop-opacity="0" offset="0%"></stop>
            <stop stop-color="#000000" stop-opacity="0.479130245" offset="100%"></stop>
        </linearGradient>
    </defs>
    <g id="Page-1" stroke="none" stroke-width="1" fill="none" fill-rule="evenodd">
        <g id="Desktop-HD" transform="translate(-542.000000, -1226.000000)">
            <g id="icons" transform="translate(0.000000, 972.000000)">
                <g id="icon-5" transform="translate(515.000000, 225.000000)">
                    <path d="M109.908991,44.5714011 L141.26282,62.6735428 C150.854253,68.2111594 156.76282,78.445097 156.76282,89.5203303 L156.76282,125.724614 C156.76282,136.799847 150.854253,147.033784 141.26282,152.571401 L109.908991,170.673543 C100.317557,176.211159 88.5004241,176.211159 78.9089907,170.673543 L47.5551616,152.571401 C37.9637282,147.033784 32.0551616,136.799847 32.0551616,125.724614 L32.0551616,89.5203303 C32.0551616,78.445097 37.9637282,68.2111594 47.5551616,62.6735428 L78.9089907,44.5714011 C88.5004241,39.0337845 100.317557,39.0337845 109.908991,44.5714011 Z" id="Polygon-Copy" fill="url(#linearGradient-1)" opacity="0.115955171" transform="translate(94.408991, 107.622472) rotate(23.000000) translate(-94.408991, -107.622472) "></path>
                    <path d="M117.286519,30.7354479 L146.908297,47.8375896 C156.49973,53.3752062 162.408297,63.6091438 162.408297,74.6843771 L162.408297,108.88866 C162.408297,119.963894 156.49973,130.197831 146.908297,135.735448 L117.286519,152.83759 C107.695085,158.375206 95.8779521,158.375206 86.2865187,152.83759 L56.6647405,135.735448 C47.0733071,130.197831 41.1647405,119.963894 41.1647405,108.88866 L41.1647405,74.6843771 C41.1647405,63.6091438 47.0733071,53.3752062 56.6647405,47.8375896 L86.2865187,30.7354479 C95.8779521,25.1978313 107.695085,25.1978313 117.286519,30.7354479 Z" id="Polygon" fill="#005F8F" transform="translate(101.786519, 91.786519) rotate(23.000000) translate(-101.786519, -91.786519) "></path>
                    <g id="Group" transform="translate(76.000000, 58.000000)" fill="#FFFFFF" fill-rule="nonzero">
                        <path d="M33.3,39.8 C33.8,39.2 33.6,38.3 33,37.8 L27.3,33.6 L27.3,27.8 C27.3,27 26.7,26.4 25.9,26.4 C25.1,26.4 24.5,27 24.5,27.8 L24.5,33.6 L18.8,37.8 C18.2,38.3 18,39.2 18.5,39.8 C19,40.4 19.9,40.6 20.5,40.1 L25.9,36.1 L31.3,40.1 C31.6,40.3 31.9,40.4 32.2,40.4 C32.6,40.4 33,40.2 33.3,39.8 L33.3,39.8 Z" id="Path"></path>
                        <path d="M25.9,12.8 C29.4,12.8 32.2,10 32.2,6.5 C32.2,3 29.4,0.2 25.9,0.2 C22.4,0.2 19.6,3 19.6,6.5 C19.6,10 22.4,12.8 25.9,12.8 L25.9,12.8 Z M25.9,3.1 C27.8,3.1 29.3,4.6 29.3,6.5 C29.3,8.4 27.8,9.9 25.9,9.9 C24,9.9 22.5,8.4 22.5,6.5 C22.5,4.6 24,3.1 25.9,3.1 L25.9,3.1 Z" id="Shape"></path>
                        <path d="M17.8,23.7 L34,23.7 C34.8,23.7 35.4,23.1 35.4,22.3 L35.4,18.7 C35.4,16.1 33.3,14 30.7,14 L21.1,14 C18.5,14 16.4,16.1 16.4,18.7 L16.4,22.3 C16.3,23.1 17,23.7 17.8,23.7 L17.8,23.7 Z M32.5,18.7 L32.5,20.8 L27.3,20.8 L27.3,16.8 L30.7,16.8 C31.7,16.9 32.5,17.7 32.5,18.7 L32.5,18.7 Z M19.2,18.7 C19.2,17.7 20,16.9 21,16.9 L24.4,16.9 L24.4,20.9 L19.2,20.9 L19.2,18.7 L19.2,18.7 Z" id="Shape"></path>
                        <path d="M10.1,44.5 C13.6,44.5 16.4,41.7 16.4,38.2 C16.4,34.7 13.6,31.9 10.1,31.9 C6.6,31.9 3.8,34.7 3.8,38.2 C3.8,41.7 6.6,44.5 10.1,44.5 L10.1,44.5 Z M10.1,34.8 C12,34.8 13.5,36.3 13.5,38.2 C13.5,40.1 12,41.6 10.1,41.6 C8.2,41.6 6.7,40.1 6.7,38.2 C6.7,36.3 8.2,34.8 10.1,34.8 L10.1,34.8 Z" id="Shape"></path>
                        <path d="M14.9,45.8 L5.3,45.8 C2.7,45.8 0.6,47.9 0.6,50.5 L0.6,54 C0.6,54.8 1.2,55.4 2,55.4 L18.2,55.4 C19,55.4 19.6,54.8 19.6,54 L19.6,50.4 C19.6,47.9 17.5,45.8 14.9,45.8 L14.9,45.8 Z M3.4,50.5 C3.4,49.5 4.2,48.7 5.2,48.7 L8.6,48.7 L8.6,52.7 L3.4,52.7 L3.4,50.5 L3.4,50.5 Z M16.7,52.6 L11.5,52.6 L11.5,48.6 L14.9,48.6 C15.9,48.6 16.7,49.4 16.7,50.4 L16.7,52.6 L16.7,52.6 Z" id="Shape"></path>
                        <path d="M41.7,44.5 C45.2,44.5 48,41.7 48,38.2 C48,34.7 45.2,31.9 41.7,31.9 C38.2,31.9 35.4,34.7 35.4,38.2 C35.4,41.7 38.2,44.5 41.7,44.5 L41.7,44.5 Z M41.7,34.8 C43.6,34.8 45.1,36.3 45.1,38.2 C45.1,40.1 43.6,41.6 41.7,41.6 C39.8,41.6 38.3,40.1 38.3,38.2 C38.2,36.3 39.8,34.8 41.7,34.8 L41.7,34.8 Z" id="Shape"></path>
                        <path d="M46.5,45.8 L36.9,45.8 C34.3,45.8 32.2,47.9 32.2,50.5 L32.2,54 C32.2,54.8 32.8,55.4 33.6,55.4 L49.8,55.4 C50.6,55.4 51.2,54.8 51.2,54 L51.2,50.4 C51.2,47.9 49.1,45.8 46.5,45.8 L46.5,45.8 Z M35,50.5 C35,49.5 35.8,48.7 36.8,48.7 L40.2,48.7 L40.2,52.7 L35,52.7 L35,50.5 Z M48.3,52.6 L43.1,52.6 L43.1,48.6 L46.5,48.6 C47.5,48.6 48.3,49.4 48.3,50.4 L48.3,52.6 Z" id="Shape"></path>
                    </g>
                </g>
            </g>
        </g>
    </g>
</svg>