<?xml version="1.0" encoding="UTF-8" standalone="no"?>
<!-- Created with Inkscape (http://www.inkscape.org/) -->

<svg
   xmlns:dc="http://purl.org/dc/elements/1.1/"
   xmlns:cc="http://creativecommons.org/ns#"
   xmlns:rdf="http://www.w3.org/1999/02/22-rdf-syntax-ns#"
   xmlns:svg="http://www.w3.org/2000/svg"
   xmlns="http://www.w3.org/2000/svg"
   xmlns:sodipodi="http://sodipodi.sourceforge.net/DTD/sodipodi-0.dtd"
   xmlns:inkscape="http://www.inkscape.org/namespaces/inkscape"
   width="210mm"
   height="113mm"
   viewBox="0 0 210 113"
   version="1.1"
   id="svg8"
   inkscape:version="0.92.4 (5da689c313, 2019-01-14)"
   sodipodi:docname="sangooc_yes.svg">
  <defs
     id="defs2" />
  <sodipodi:namedview
     id="base"
     pagecolor="#ffffff"
     bordercolor="#666666"
     borderopacity="1.0"
     inkscape:pageopacity="0.0"
     inkscape:pageshadow="2"
     inkscape:zoom="0.98994949"
     inkscape:cx="-417.77007"
     inkscape:cy="386.40036"
     inkscape:document-units="mm"
     inkscape:current-layer="layer1"
     showgrid="false"
     inkscape:window-width="5760"
     inkscape:window-height="3146"
     inkscape:window-x="-11"
     inkscape:window-y="-11"
     inkscape:window-maximized="1" />
  <metadata
     id="metadata5">
    <rdf:RDF>
      <cc:Work
         rdf:about="">
        <dc:format>image/svg+xml</dc:format>
        <dc:type
           rdf:resource="http://purl.org/dc/dcmitype/StillImage" />
        <dc:title></dc:title>
      </cc:Work>
    </rdf:RDF>
  </metadata>
  <g
     inkscape:label="Layer 1"
     inkscape:groupmode="layer"
     id="layer1"
     transform="translate(0,-184)">
    <g
       aria-label="YES "
       style="font-style:normal;font-weight:normal;font-size:10.58333302px;line-height:1.25;font-family:sans-serif;letter-spacing:0px;word-spacing:0px;fill:#ffae1d;fill-opacity:1;stroke:none;stroke-width:0.26458332"
       id="text828"
       transform="matrix(0.91677375,0,0,0.91677375,-7.618692,191.33282)">
      <path
         d="m 85.524733,56.927158 q 0,-0.148829 0,-0.496094 0,-0.396875 0,-0.79375 0,-0.446485 0,-0.79375 0,-0.396875 0,-0.545703 0,-2.133203 0.198437,-3.770313 0.248047,-1.686718 0.595313,-3.274218 0.396875,-1.5875 0.942578,-3.22461 0.545703,-1.686718 1.141016,-3.770312 0,-0.09922 0,-0.347266 0.04961,-0.297656 0.04961,-0.396875 0.09922,-0.04961 -0.892969,-0.496094 -0.942578,-0.446484 -2.33164,-1.240234 -1.389063,-0.843359 -3.026172,-2.083594 -1.63711,-1.240234 -3.026172,-2.877343 -1.339453,-1.63711 -2.182813,-3.671094 -0.79375,-2.033984 -0.595312,-4.514453 0.04961,0 0.248047,0 0.248047,-0.04961 0.496094,-0.04961 0.297656,-0.04961 0.545703,-0.09922 h 0.297656 q 0.347266,0.992187 0.942578,2.232422 0.595313,1.240234 1.438672,2.530078 0.892969,1.289843 1.934765,2.530078 1.041797,1.190625 2.182813,2.182812 1.190625,0.942578 2.430859,1.537891 1.289844,0.545703 2.629297,0.545703 0.892969,-1.984375 1.389063,-3.125391 0.545703,-1.190625 0.843359,-1.835546 0.297656,-0.644922 0.396875,-0.942579 0.09922,-0.347265 0.148828,-0.694531 0.04961,-0.396875 0.09922,-0.892968 0.04961,-0.545704 0.248047,-1.63711 0,-0.198437 0.396875,-0.396875 0.396875,-0.248047 0.79375,-0.297656 0.446484,-0.04961 0.79375,0.09922 0.396875,0.148828 0.396875,0.595312 0,2.728516 -0.595313,5.208984 -0.595312,2.43086 -1.488281,4.7625 -0.892969,2.331641 -1.885156,4.663282 -0.992188,2.282031 -1.736328,4.71289 -0.744141,2.430859 -1.091407,5.060156 -0.297656,2.629297 0.148829,5.60586 -0.297657,0.545703 -0.595313,0.74414 -0.297656,0.248047 -0.79375,0.248047 -0.496094,0 -0.843359,-0.248047 -0.347266,-0.198437 -0.644922,-0.74414 z"
         style="font-style:normal;font-variant:normal;font-weight:normal;font-stretch:normal;font-size:50.79999924px;font-family:'Indie Flower';-inkscape-font-specification:'Indie Flower';fill:#ffae1d;fill-opacity:1;stroke-width:0.26458332"
         id="path840"
         inkscape:connector-curvature="0" />
      <path
         d="m 100.7052,28.897861 q -0.19844,0 -0.34726,-0.04961 0.24804,0.496094 0.24804,0.694531 v 8.979297 q 0.24805,0.396875 1.43867,0.396875 1.19063,-0.04961 2.82774,-0.198438 1.63711,-0.148828 3.47265,-0.446484 1.83555,-0.347266 3.42305,-0.595313 1.5875,-0.297656 2.6293,-0.496093 1.0914,-0.198438 1.19062,-0.09922 0.14883,0 0.54571,0 0.44648,-0.04961 0.94257,-0.04961 0.4961,-0.04961 0.89297,-0.04961 0.39688,-0.04961 0.54571,-0.04961 0,1.190625 -1.33946,1.934765 -1.28984,0.744141 -3.27422,1.141016 -1.98437,0.396875 -4.31601,0.644922 -2.28203,0.198437 -4.31602,0.347265 -1.98437,0.148829 -3.37343,0.347266 -1.43868,0.09922 -1.53789,0.496094 -0.29766,0.79375 -0.446489,1.785937 -0.09922,0.992188 -0.148828,2.033985 0,0.992187 0,2.033984 0.04961,0.992187 0.04961,1.785937 0,0.198438 0,0.694532 0,0.496093 0,1.041797 0,0.496093 0,0.992187 0,0.446484 0,0.595313 0.198437,0.496093 0.892967,0.74414 0.69453,0.248047 1.48828,0.347266 0.79375,0.04961 1.48828,0 0.79375,-0.04961 1.09141,-0.04961 1.68672,0 3.37344,-0.148828 1.68672,-0.198437 3.32383,-0.347265 1.68671,-0.198438 3.32382,-0.347266 1.68672,-0.198437 3.37344,-0.198437 h 0.29766 q 0.0992,0.04961 0.29765,0.09922 0.19844,0.04961 0.39688,0.148828 0.24804,0.09922 0.39687,0.198438 0.19844,0.09922 0.29766,0.09922 0.0992,0.04961 0.29766,0.198437 0.19843,0.09922 0.19843,0.198438 0,0.942578 -1.04179,1.5875 -1.0418,0.595312 -2.6293,0.992187 -1.5875,0.347266 -3.47266,0.545703 -1.88515,0.148828 -3.62148,0.248047 -1.73633,0.04961 -2.97656,0.04961 -1.24024,0 -1.5875,0 -1.98438,0 -3.52227,-0.347265 -1.48828,-0.347266 -2.530076,-1.141016 -0.992188,-0.843359 -1.488281,-2.232422 -0.496094,-1.488281 -0.496094,-3.571875 0,-1.885156 0.248047,-3.770312 0.297656,-1.885156 0.297656,-3.819922 0,-0.79375 -0.248047,-1.339453 -0.248047,-0.545703 -0.248047,-1.190625 v -0.297656 q 0.09922,-0.09922 0.347266,-0.446485 0.248047,-0.396875 0.347265,-0.496093 V 27.558408 q 0,-0.79375 0.148829,-1.190625 0.198437,-0.396875 0.843359,-0.545703 0.694531,-0.148828 1.885153,-0.09922 1.24024,0.04961 3.32383,0.148828 2.1332,0.09922 5.20898,0.148828 3.175,0.04961 7.54063,0 0.49609,0.198438 0.99219,0.446485 0.49609,0.198437 0.89297,0.545703 0.44648,0.347266 0.69453,0.79375 0.24804,0.446484 0.24804,1.091406 0,0.148828 -0.19843,0.347266 -0.14883,0.198437 -0.24805,0.148828 l -2.38125,-0.942578 z"
         style="font-style:normal;font-variant:normal;font-weight:normal;font-stretch:normal;font-size:50.79999924px;font-family:'Indie Flower';-inkscape-font-specification:'Indie Flower';fill:#ffae1d;fill-opacity:1;stroke-width:0.26458332"
         id="path842"
         inkscape:connector-curvature="0" />
      <path
         d="m 123.72395,48.295126 q 0,-0.496093 0.19844,-1.041796 0.19844,-0.595313 0.5457,-1.091407 0.34727,-0.545703 0.84336,-0.892968 0.4961,-0.347266 1.0418,-0.347266 0,3.224609 1.14102,5.109766 1.14101,1.835546 3.12539,2.827734 2.03398,0.992187 4.61367,1.339453 2.57969,0.347266 5.55625,0.496094 0.99219,-0.04961 2.57969,-0.04961 1.6371,-0.04961 3.12539,-0.347265 1.48828,-0.347266 2.53007,-1.091406 1.0418,-0.744141 0.99219,-2.282032 0,-0.694531 -0.0496,-1.240234 -0.0496,-0.545703 -0.24804,-0.942578 -0.14883,-0.446485 -0.59532,-0.84336 -0.39687,-0.396875 -1.14101,-0.79375 l -14.73399,-8.036718 q -0.79375,-0.446485 -1.53789,-1.091406 -0.74414,-0.694532 -1.24023,-1.488282 -0.4961,-0.843359 -0.79375,-1.736328 -0.29766,-0.942578 -0.29766,-1.835547 0,-1.885156 0.99219,-3.075781 1.0418,-1.190625 2.53008,-1.885156 1.53789,-0.744141 3.27422,-1.041797 1.78593,-0.297656 3.27421,-0.297656 0.69454,0 1.78594,0.148828 1.09141,0.09922 2.33164,0.347266 1.24024,0.248047 2.43086,0.644922 1.24024,0.396875 2.18281,1.041796 0.94258,0.595313 1.5379,1.438672 0.64492,0.79375 0.64492,1.885156 -0.69453,0.396875 -1.43867,0.248047 -0.69454,-0.148828 -1.43868,-0.545703 -0.74414,-0.396875 -1.53789,-0.892969 -0.79375,-0.496093 -1.63711,-0.992187 -0.84336,-0.496094 -1.78593,-0.79375 -0.94258,-0.297656 -1.98438,-0.198437 -0.94258,0 -2.43086,0.09922 -1.48828,0.09922 -2.92695,0.496094 -1.38906,0.347266 -2.43086,1.141016 -0.99219,0.74414 -0.99219,2.133203 0,1.339453 0.94258,2.480468 0.94258,1.091407 2.53008,2.133204 1.63711,0.992187 3.62148,1.934765 2.03399,0.892969 4.06797,1.885156 2.08359,0.942578 4.01836,1.984375 1.98438,1.041797 3.42305,2.282032 1.48828,1.240234 2.28203,2.678906 0.84336,1.389062 0.59531,3.175 -0.24805,1.785937 -1.53789,3.075781 -1.28984,1.289844 -3.27422,2.033984 -1.98437,0.694531 -4.41523,0.892969 -2.43086,0.248047 -5.01055,0 -2.57969,-0.248047 -5.10977,-0.942578 -2.53007,-0.694531 -4.61367,-1.835547 -2.08359,-1.190625 -3.57187,-2.728516 -1.48828,-1.5875 -1.98438,-3.571875 z"
         style="font-style:normal;font-variant:normal;font-weight:normal;font-stretch:normal;font-size:50.79999924px;font-family:'Indie Flower';-inkscape-font-specification:'Indie Flower';fill:#ffae1d;fill-opacity:1;stroke-width:0.26458332"
         id="path844"
         inkscape:connector-curvature="0" />
    </g>
    <path
       style="fill:#ffae1d;fill-opacity:1;stroke-width:0.24256302"
       d="m 54.769979,271.3772 c 0.0547,-0.11518 0.41839,-0.07 0.808188,0.1005 0.600953,0.26277 0.688016,0.25171 0.572532,-0.0727 -0.07491,-0.21044 -0.239025,-0.34601 -0.364709,-0.30127 -0.125687,0.0447 -0.269038,-0.0325 -0.318563,-0.17163 -0.04952,-0.13913 0.08528,-0.24868 0.299554,-0.24344 0.237319,0.005 0.342938,-0.12156 0.270135,-0.32608 -0.0657,-0.18459 -0.222292,-0.299 -0.347979,-0.25427 -0.316774,0.11276 -0.508909,-0.51984 -0.254406,-0.83763 0.140217,-0.17509 0.205076,-0.11881 0.197972,0.1718 -0.0057,0.23771 0.09161,0.39585 0.216495,0.35139 0.12488,-0.0445 0.179207,-0.40949 0.120721,-0.81121 -0.05848,-0.40171 -0.0038,-0.70837 0.121373,-0.68147 0.125243,0.0269 0.279115,-0.17457 0.341937,-0.44773 0.101549,-0.44153 0.122487,-0.43529 0.188659,0.0562 0.111061,0.82486 0.914908,0.4548 0.834081,-0.38398 -0.04906,-0.50909 0.02249,-0.61336 0.340968,-0.49683 0.30157,0.11034 0.401486,0.07 0.396827,-0.16041 -0.0034,-0.16933 0.166587,-0.39954 0.377809,-0.51158 0.257672,-0.13668 0.381015,-0.0801 0.374854,0.17187 -0.0074,0.30128 0.06318,0.29592 0.356628,-0.0271 0.201193,-0.22147 0.33049,-0.5019 0.287326,-0.62316 -0.04316,-0.12127 0.127185,-0.29369 0.378554,-0.38317 0.25137,-0.0895 0.419143,-0.26913 0.372832,-0.39924 -0.05709,-0.16039 0.091,-0.21017 0.459899,-0.15464 0.299254,0.045 0.596431,0.22893 0.660389,0.40861 0.101979,0.28649 0.125925,-0.54517 0.489199,-0.67449 0.07159,-0.0255 0.798806,0.75339 0.626439,0.37015 -0.278596,-0.61948 -0.244916,-0.7253 0.303373,-0.95328 0.339225,-0.14103 0.645426,-0.17592 0.680458,-0.0775 0.03503,0.0984 0.163301,0.14349 0.28504,0.10015 0.121738,-0.0433 0.128481,-0.19056 0.01499,-0.32717 -0.269786,-0.32472 -0.08882,-1.10633 0.221975,-0.95872 0.132145,0.0628 0.133763,0.24712 0.0036,0.40967 -0.167166,0.20873 -0.145324,0.31516 0.07438,0.36235 0.498503,0.10709 1.131238,-0.50934 0.974574,-0.94946 -0.07901,-0.22196 0.0106,-0.45846 0.19913,-0.52556 0.188527,-0.0671 0.407724,0.0604 0.487106,0.28344 0.07937,0.22301 0.271828,0.43286 0.427662,0.46633 0.155835,0.0335 0.255562,0.19017 0.221611,0.34821 -0.03913,0.18215 0.07743,0.13414 0.318405,-0.13112 0.528265,-0.58156 0.612312,-0.58144 0.828984,7.6e-4 0.183556,0.49347 0.196453,0.49209 0.364145,-0.0387 0.165622,-0.52433 -0.07587,-1.03139 -0.336309,-0.70619 -0.16211,0.20244 -0.952231,-0.0665 -1.142816,-0.38908 -0.180506,-0.30545 1.456233,-0.11842 1.886912,0.21562 0.451642,0.3503 0.800264,0.0885 0.489652,-0.36775 -0.155315,-0.22813 -0.168639,-0.39034 -0.0296,-0.36048 0.139035,0.0299 0.322805,0.22531 0.40838,0.43431 0.0958,0.23396 0.160809,0.25445 0.16917,0.0534 0.0074,-0.17967 0.133842,-0.36858 0.280823,-0.41979 0.442649,-0.15425 5.362549,-0.64885 2.957376,1.62908 0.216039,0.63832 -0.997262,1.51024 -1.121774,1.36906 -0.458135,-0.51948 -0.571141,-1.04552 -0.570649,-0.71435 2.43e-4,0.1778 -1.535489,0.45008 -1.675727,0.41995 -0.140235,-0.0302 -0.04738,-0.13311 0,0 0.04738,0.1331 0.240392,0.1871 0.428919,0.11999 0.188528,-0.0671 0.404064,0.0502 0.478971,0.26059 0.114432,0.32149 0.01984,0.33174 -0.592068,0.0642 -0.456673,-0.19968 -0.743711,-0.49725 -0.769689,-0.79789 -0.02277,-0.26371 0.06217,-0.4572 0.188794,-0.43 0.126621,0.0273 0.138805,-0.15683 0.02708,-0.40896 -0.198293,-0.44744 -0.208102,-0.44262 -0.410216,0.20098 -0.113885,0.36266 -0.151786,0.68564 -0.08422,0.71773 0.06756,0.0321 0.08881,0.28429 0.04725,0.56044 -0.07168,0.47606 -0.104419,0.4893 -0.631625,0.25535 -0.30581,-0.13572 -0.542308,-0.33854 -0.525539,-0.45072 0.01676,-0.11217 -0.10664,-0.16313 -0.274246,-0.11321 -0.167607,0.0498 -0.609806,0.15623 -0.982665,0.23629 -0.51344,0.11025 -0.618836,0.21453 -0.434388,0.42984 0.285598,0.33336 0.03541,0.47731 -0.438438,0.25224 -0.234342,-0.1113 -0.333491,-0.0423 -0.340311,0.23676 -0.0066,0.26903 0.08098,0.31621 0.27628,0.14889 0.330576,-0.28321 0.732394,0.54956 0.440836,0.91362 -0.09804,0.12241 -0.21701,0.11368 -0.264389,-0.0195 -0.04738,-0.1331 -0.24235,-0.1864 -0.433271,-0.11844 -0.256164,0.0912 -0.362848,-0.0395 -0.407102,-0.49877 -0.07454,-0.7736 -0.773817,-0.64715 -0.746713,0.13503 0.01678,0.48408 -0.02078,0.50163 -0.842797,0.39352 l -0.860355,-0.11316 0.610903,0.33429 c 0.335996,0.18386 0.570471,0.41941 0.521059,0.52344 -0.04941,0.10404 -0.508958,-0.0336 -1.02121,-0.30605 -0.58118,-0.30901 -0.956013,-0.38048 -0.996914,-0.19009 -0.03605,0.16779 0.04942,0.26416 0.189948,0.21415 0.140519,-0.0501 0.225664,0.0479 0.189206,0.2176 -0.04619,0.215 -0.816086,1.12095 -1.027378,0.95274 -0.561478,-0.44695 -0.687421,-0.81975 -0.693087,-0.002 -0.0034,0.48407 -0.174529,0.82883 -0.478007,0.96272 -0.471846,0.20817 -0.4723,0.20716 -0.228635,-0.51708 0.134283,-0.39913 0.161076,-0.76514 0.05954,-0.81336 -0.101533,-0.0482 -0.263024,0.17177 -0.35887,0.48889 -0.09585,0.31711 -0.333541,0.59921 -0.528212,0.6269 -0.194671,0.0277 -0.313579,0.16374 -0.264239,0.30236 0.04934,0.1386 0.169917,0.15186 0.267954,0.0294 0.09803,-0.12242 0.208986,-0.13622 0.246554,-0.0306 0.09443,0.26528 -1.07266,1.22376 -1.478046,1.21385 -0.305974,-0.008 -0.456569,1.36764 -0.296546,2.70787 0.05256,0.44019 0.03965,0.44879 -0.118584,0.079 -0.117296,-0.27408 -0.278988,-0.32798 -0.476454,-0.15881 -0.228488,0.19575 -0.321726,0.11684 -0.395882,-0.33519 -0.07019,-0.42788 -0.232327,-0.58657 -0.586792,-0.57428 -0.504721,0.0175 -0.688814,-0.17645 -0.514949,-0.54251 z m 11.112058,-7.34492 c 0.158035,0.0339 0.163689,-0.0714 0.01326,-0.247 -0.292834,-0.34181 -0.482412,-0.35595 -0.365406,-0.0273 0.0421,0.11826 0.20056,0.24167 0.352138,0.27423 z m -5.567263,3.74707 c 0.235904,-0.008 0.43516,-0.15465 0.442789,-0.32643 0.0076,-0.17177 0.08605,-0.13523 0.174265,0.0811 0.18335,0.44978 0.0024,0.56267 -0.615424,0.38394 -0.367942,-0.10645 -0.36818,-0.12662 -0.0018,-0.13869 z m 11.302347,-6.08836 c 0.5473,0.58957 4.585077,0.084 4.73221,0.78243 0.140483,0.70664 -3.033122,2.18257 -3.249637,1.5743 -0.07784,-0.21868 -0.23346,-0.23794 -0.446701,-0.0553 -0.276376,0.23677 -0.344789,0.15981 -0.440137,-0.49509 -0.09242,-0.74478 -0.924845,-1.14602 -0.595729,-1.8064 z m -0.138478,-1.06513 c 0.272334,-0.0969 1.381426,0.63017 1.527197,1.00121 0.114216,0.29071 0.146013,0.28174 0.223937,-0.0632 0.07495,-0.33177 0.171705,-0.37238 0.553915,-0.23254 0.386033,0.14124 0.464827,0.0986 0.473496,-0.25605 0.0086,-0.35196 0.09032,-0.39718 0.473028,-0.26173 0.392739,0.139 0.418482,0.11137 0.170407,-0.18283 -0.198571,-0.23549 -0.180348,-0.38637 0.05687,-0.47082 0.192001,-0.0683 0.328581,-0.0288 0.303513,0.0879 -0.08989,0.41846 0.770485,0.79128 1.038065,0.44984 0.207215,-0.26442 0.195994,-0.30549 -0.05948,-0.21774 -0.25586,0.0879 -0.283983,0.0237 -0.150044,-0.34237 0.144865,-0.39594 0.229491,-0.40267 0.698766,-0.0557 0.293663,0.21719 0.578717,0.42341 0.633455,0.45831 0.05473,0.0348 0.364041,7.2e-4 0.687347,-0.0758 0.323305,-0.0766 0.728892,-0.10896 0.901309,-0.072 0.18428,0.0396 0.294293,-0.15475 0.266927,-0.47149 -0.02952,-0.34124 0.09159,-0.53548 0.33014,-0.52964 0.207191,0.005 0.522542,-0.0427 0.7008,-0.10616 0.178239,-0.0635 0.391187,0.0732 0.473211,0.30359 0.243009,0.68272 0.576119,0.67326 0.794614,-0.0225 0.170428,-0.54272 0.28001,-0.62334 0.658794,-0.48475 0.249894,0.0914 0.45042,0.32742 0.445607,0.52441 -0.0046,0.19699 0.101055,0.44612 0.23528,0.55361 0.39138,0.31343 0.754899,-0.51668 0.419653,-0.95832 -0.428665,-0.56471 0.139781,-0.62808 0.675268,-0.0753 0.564265,0.5825 0.919332,0.52589 0.506325,-0.0807 -0.26205,-0.3849 -0.231742,-0.42801 0.249922,-0.35549 0.301472,0.0454 0.593455,-0.0129 0.648855,-0.12953 0.05538,-0.11663 0.0958,-0.0111 0.08985,0.23456 -0.0064,0.24564 0.09538,0.40878 0.225297,0.36254 0.129916,-0.0462 0.223014,-0.28215 0.206888,-0.52422 -0.01613,-0.24209 0.05904,-0.13616 0.167036,0.23537 0.107996,0.37153 0.341003,0.67483 0.517813,0.67398 0.192742,-7.7e-4 0.225874,-0.11312 0.08269,-0.2802 -0.329965,-0.38514 0.470883,-1.09774 1.271254,-1.13116 0.354323,-0.0148 1.317954,-0.0872 2.1414,-0.16079 1.383164,-0.12369 1.50834,-0.17079 1.643858,-0.6185 0.08068,-0.26654 0.237709,-0.44136 0.34896,-0.38852 0.11126,0.0528 0.128,0.29912 0.03722,0.54727 -0.170429,0.4658 -0.182319,0.46211 0.7508,0.23265 0.145114,-0.0357 0.461851,0.008 0.703864,0.0961 0.242005,0.0886 0.965976,0.0439 1.608807,-0.0991 1.60582,-0.35738 2.549996,-0.28318 2.573778,0.20227 0.01623,0.33079 0.03645,0.32102 0.12781,-0.0617 0.126362,-0.52939 1.182461,-0.78687 1.535806,-0.37444 0.154256,0.18005 0.09177,0.26215 -0.194058,0.25514 -0.330688,-0.008 -0.29212,0.0534 0.179111,0.28551 0.714686,0.35201 1.206256,0.23862 1.543006,-0.35591 0.19892,-0.35117 0.40748,-0.43281 1.07344,-0.42019 0.4546,0.008 0.88415,0.17252 0.95456,0.36423 0.10207,0.27793 0.14519,0.27283 0.21278,-0.0252 0.0639,-0.28193 0.16052,-0.26249 0.39308,0.0791 0.17417,0.25582 0.39237,0.34792 0.50148,0.21168 0.10623,-0.13266 0.0899,-0.32386 -0.0362,-0.4249 -0.13985,-0.11199 -0.005,-0.14981 0.34753,-0.0969 0.31732,0.0478 0.55002,0.0113 0.51713,-0.0811 -0.0329,-0.0924 0.0966,-0.0937 0.28782,-0.003 0.19118,0.0907 0.45851,0.0701 0.59406,-0.046 0.13555,-0.11613 0.36492,-0.0729 0.50972,0.0961 0.14479,0.16902 0.16366,0.34276 0.0419,0.38609 -0.12174,0.0433 -0.16427,0.2391 -0.0945,0.43505 0.0724,0.2032 0.21196,0.24995 0.32498,0.10881 0.109,-0.13611 0.33839,-0.1377 0.50975,-0.004 0.22883,0.17915 0.26159,0.10056 0.12334,-0.29595 -0.13859,-0.3975 -0.0799,-0.5372 0.22262,-0.52981 0.22596,0.005 0.45061,-0.005 0.49923,-0.0214 0.0486,-0.0173 0.0844,0.12876 0.0797,0.3246 -0.005,0.19585 0.17194,0.3605 0.39271,0.3659 0.22222,0.005 0.33759,-0.0926 0.25845,-0.21969 -0.0787,-0.12622 -0.0186,-0.33225 0.13342,-0.45784 0.16791,-0.13872 0.25011,-0.10597 0.20943,0.0834 -0.0427,0.19848 0.0443,0.21644 0.23923,0.0494 0.16841,-0.14428 0.34744,-0.14649 0.39784,-0.005 0.0542,0.1522 0.31775,0.12756 0.64479,-0.0603 0.42066,-0.24162 0.55095,-0.22698 0.54392,0.061 -0.015,0.61365 0.77924,1.39282 1.12116,1.09989 0.22289,-0.19094 0.20388,-0.34195 -0.0749,-0.59517 -0.50482,-0.45858 -0.52498,-0.57675 -0.1228,-0.71991 0.18852,-0.0671 0.35805,-0.0405 0.37672,0.059 0.10041,0.53546 0.40403,0.96149 0.55283,0.77569 0.0938,-0.11707 0.0463,-0.35775 -0.10541,-0.53485 -0.20776,-0.24252 -0.1777,-0.29982 0.12172,-0.23213 0.21867,0.0494 0.49634,0.0564 0.61705,0.0157 0.12067,-0.0409 0.37612,0.15971 0.5676,0.44557 0.36436,0.54395 0.39334,0.54272 1.32069,-0.0558 0.42369,-0.27344 0.60663,-0.28493 0.69256,-0.0436 0.0642,0.18045 0.006,0.42571 -0.12783,0.54503 -0.1916,0.16992 -0.17977,0.19826 0.0547,0.13075 0.16457,-0.0474 0.30345,-0.25836 0.30859,-0.46879 0.008,-0.33575 0.12634,-0.37629 0.965,-0.33111 0.52561,0.0283 1.08843,0.16761 1.25074,0.30957 0.1666,0.14572 0.43411,0.13901 0.61437,-0.0154 0.18975,-0.16258 0.49691,-0.15264 0.75717,0.0244 0.24085,0.16388 0.52345,0.19113 0.628,0.0606 0.10489,-0.13097 0.24941,-0.0708 0.3224,0.13428 0.0905,0.25409 0.24788,0.28393 0.49766,0.0943 0.20095,-0.15255 0.90351,-0.21317 1.56125,-0.13471 1.17344,0.13995 1.34634,0.1452 1.78399,0.0543 0.11952,-0.0249 0.25497,0.20212 0.30101,0.50434 l 0.0837,0.54952 0.0446,-0.59518 c 0.0558,-0.74539 0.0944,-0.75636 1.05579,-0.29975 0.43379,0.20605 0.74953,0.26449 0.7016,0.12985 -0.0509,-0.14295 0.28045,-0.18993 0.79658,-0.11294 0.48604,0.0725 0.93846,0.12291 1.00538,0.11198 0.5615,-0.0917 1.28892,0.005 1.35084,0.17833 0.0417,0.11721 0.23011,0.15821 0.41863,0.0911 0.18853,-0.0671 0.35805,-0.0405 0.37673,0.059 0.085,0.4531 0.26538,0.58263 0.34188,0.24543 0.0691,-0.3048 0.25457,-0.36167 1.04101,-0.31932 0.52629,0.0283 0.99696,0.16413 1.04594,0.30174 0.0489,0.1376 0.21166,0.18774 0.3615,0.11141 0.58636,-0.29866 0.86856,-0.27241 0.99859,0.0929 0.0745,0.20948 0.17657,0.29455 0.22668,0.18905 0.0502,-0.10551 0.29362,-0.0956 0.54115,0.0219 0.64062,0.30428 1.15792,0.0707 0.80183,-0.36206 -0.15771,-0.19168 0.17403,-0.12254 0.73718,0.15363 0.79782,0.39124 1.04307,0.41766 1.11057,0.11962 0.0513,-0.22661 0.12564,-0.27746 0.18233,-0.12474 0.0525,0.14179 0.33535,0.23704 0.62826,0.21173 0.38371,-0.0332 0.54454,0.0925 0.5754,0.44963 0.0303,0.3512 0.12257,0.42734 0.31646,0.26123 0.15048,-0.12893 0.2216,-0.40627 0.158,-0.6163 -0.073,-0.24115 -0.0357,-0.29173 0.10134,-0.13725 0.11931,0.13453 0.41404,0.17446 0.65493,0.0887 0.25168,-0.0896 0.49414,0.002 0.56997,0.21485 0.10342,0.29053 0.18037,0.28928 0.35568,-0.005 0.17376,-0.29245 0.51907,-0.3318 1.54647,-0.17621 0.72753,0.11017 1.33092,0.30686 1.3409,0.43709 0.01,0.13023 0.23095,0.095 0.49104,-0.0784 0.31684,-0.21117 1.17531,-0.22113 2.60133,-0.0302 1.17063,0.15675 2.16564,0.27176 2.21112,0.25557 0.0455,-0.0162 0.0233,-0.19627 -0.0493,-0.40019 -0.0354,-0.63878 0.74593,-0.0185 0.634,0.31055 -0.0932,0.25476 0.18742,0.4081 1.00325,0.5482 0.62297,0.10697 1.01761,0.10235 0.87697,-0.0103 2.31396,0.11795 4.22363,4.24464 2.618,3.69623 0,0 -0.77232,-0.5025 -0.98965,0.57768 -0.0803,0.35739 -0.18417,0.40033 -0.69896,0.28895 -0.91843,-0.19872 -2.40383,-0.44476 -3.92232,-0.64969 -1.82263,-0.2459 -2.92588,-0.5832 -3.0502,-0.93247 -0.056,-0.15748 -0.22594,-0.31296 -0.37753,-0.34552 -0.16369,-0.0352 -0.15782,0.0783 0.0145,0.27937 0.22069,0.25758 0.19522,0.31777 -0.10648,0.25161 -0.2181,-0.0478 -0.55445,-0.0562 -0.74746,-0.0187 -0.71304,0.13869 -1.60266,-0.13156 -1.74447,-0.52994 -0.17287,-0.48565 -0.52908,-0.55428 -2.90948,-0.56049 -0.9886,-0.003 -2.63194,-0.0706 -3.65186,-0.15107 -1.01992,-0.0805 -2.41691,-0.1866 -3.10442,-0.23574 -0.68749,-0.0492 -1.22644,-0.19904 -1.19763,-0.33312 0.0492,-0.229 -0.33451,-0.21769 -0.75124,0.0222 -0.10234,0.059 -0.75491,0.1192 -1.45016,0.13401 -0.87966,0.0187 -1.26138,-0.0834 -1.2552,-0.33598 0.005,-0.1996 -0.12201,-0.33396 -0.282,-0.29859 -0.15997,0.0354 -0.39823,0.0882 -0.52947,0.1173 -0.13124,0.0292 -0.3958,0.0182 -0.58792,-0.0242 -0.19212,-0.0424 -0.4235,0.0155 -0.51418,0.12873 -0.0907,0.11325 -0.43706,0.1981 -0.76967,0.18856 -1.97751,-0.0567 -2.8417,-0.15333 -2.90268,-0.32464 -0.038,-0.1066 -0.35337,-0.0976 -0.70095,0.02 -0.34757,0.11757 -1.13294,0.10828 -1.74528,-0.0207 -1.30217,-0.27423 -0.96002,-0.25114 -4.22095,-0.28484 -1.42132,-0.0147 -3.45641,-0.0358 -4.52241,-0.0468 -1.06601,-0.0111 -2.32824,-0.0742 -2.80496,-0.14026 -0.47673,-0.0661 -1.0702,-0.0478 -1.31883,0.0408 -0.24864,0.0885 -0.63756,0.0728 -0.86429,-0.0348 -0.22672,-0.10769 -0.5247,-0.10783 -0.66218,-2.5e-4 -0.13748,0.10752 -0.28482,0.0975 -0.32743,-0.0222 -0.0426,-0.11972 -0.44413,-0.15053 -0.89228,-0.0685 -0.44812,0.0821 -1.36145,0.10235 -2.02959,0.0451 -0.66815,-0.0573 -1.48083,-0.009 -1.80597,0.10634 -0.32516,0.11573 -1.00886,0.18793 -1.519347,0.16043 -0.510496,-0.0275 -0.991956,-0.008 -1.069919,0.0452 -0.07802,0.0524 -0.825648,0.1268 -1.661524,0.1655 -0.835885,0.0387 -1.856983,0.0996 -2.269095,0.13528 -4.088656,0.35424 -5.753967,0.34303 -5.67208,-0.0382 0.0242,-0.11279 -0.179496,-0.18576 -0.452713,-0.16215 -0.313252,0.027 -0.456517,0.15602 -0.387813,0.34902 0.180008,0.5057 -1.284822,0.85352 -1.606252,0.38141 -0.149324,-0.21932 -0.383386,-0.29517 -0.528144,-0.17116 -0.168439,0.14431 -0.256605,0.085 -0.250417,-0.16857 0.0055,-0.21521 0.141201,-0.38808 0.302086,-0.38414 0.160876,0.004 0.368552,-0.16809 0.461486,-0.38227 0.133793,-0.30836 0.02961,-0.37599 -0.500641,-0.32489 -0.368278,0.0354 -0.789031,-0.0286 -0.934999,-0.14244 -0.192028,-0.14972 -0.236253,-0.12195 -0.15994,0.10044 0.05812,0.16904 -0.05473,0.56984 -0.250619,0.89061 -0.340994,0.55846 -0.380855,0.57251 -0.939436,0.33102 -0.984899,-0.2929 1.09053,0.75367 -2.416011,0.23199 -0.09224,0.25209 -0.06096,0.50446 0.0694,0.56081 0.130429,0.0564 0.237288,-0.0431 0.237453,-0.22109 0.287097,-0.44419 0.835026,-0.005 0.394158,0.18313 -0.15333,-0.0329 -0.235546,0.0616 -0.182685,0.2101 0.07114,0.19996 -0.0074,0.23228 -0.30117,0.12464 -0.218494,-0.0799 -0.44084,-0.0537 -0.494104,0.0585 -0.05326,0.11215 -0.13527,0.0959 -0.182255,-0.0361 -0.04694,-0.13198 -0.310217,-0.22053 -0.584983,-0.19679 -0.506931,0.0438 -0.867984,-0.38885 -0.448982,-0.53799 0.12569,-0.0447 0.166715,-0.25499 0.09113,-0.46722 -0.115449,-0.32435 -0.183401,-0.27934 -0.426254,0.2824 -0.203377,0.47043 -0.461715,0.68492 -0.872637,0.72451 -0.321053,0.0309 -0.610883,0.18264 -0.644066,0.33711 -0.03809,0.17731 -0.34291,0.29856 -0.826901,0.32893 -0.421616,0.0265 -0.909231,0.17032 -1.08359,0.3197 -0.196536,0.16838 -0.292773,0.15874 -0.253226,-0.0254 0.03508,-0.16332 -0.110854,-0.30121 -0.324314,-0.30644 -0.213456,-0.005 -0.439677,-0.15436 -0.502713,-0.33145 -1.78106,-1.70453 -8.081477,0.81273 -4.783723,-1.60239 -0.08664,-0.24123 1.823991,-0.3872 1.534168,-0.54301 -0.289822,-0.15581 -0.45037,-0.31054 -0.356774,-0.34385 z m 6.003764,1.57787 c 0.267806,0.12721 0.53461,0.2143 0.592897,0.19355 0.164071,-0.0584 -0.651183,-0.74959 -0.963196,-0.81662 -0.440863,-0.0947 -0.165541,0.36856 0.370299,0.62307 z m 6.756043,-0.45542 c 0.05547,-0.0197 0.127716,-0.16132 0.160656,-0.31467 0.03291,-0.15333 -0.04905,-0.24003 -0.182108,-0.19265 -0.133106,0.0474 -0.205403,0.18899 -0.160664,0.31467 0.04474,0.12568 0.126688,0.21238 0.182116,0.19265 z m -9.620441,1.62215 c 0.104738,-0.0373 0.24373,0.082 0.308867,0.26494 0.06514,0.183 0.0139,0.31026 -0.11389,0.28281 -0.127778,-0.0274 -0.266769,-0.14667 -0.308868,-0.26494 -0.0421,-0.11826 0.0092,-0.24553 0.113891,-0.28281 z m 26.017431,-5.91394 c 0.13311,-0.0474 0.21505,0.0394 0.18212,0.19264 -0.0329,0.15335 -0.10523,0.29494 -0.16066,0.31467 -0.0554,0.0197 -0.13738,-0.0669 -0.18212,-0.19265 -0.0447,-0.12568 0.0276,-0.26728 0.16066,-0.31466 z"
       id="path4531"
       inkscape:connector-curvature="0"
       sodipodi:nodetypes="ccccccccccccccsccccccsccccsccscccccccccccccccccsccccccccscccsccccccssccccccccccccssccccccccccccccscccccccccccccccccccccccccccccccccccccccccccscccccssccccccccsccsccccccccccccccccccccccccccccccccccccccccscccscccccccccccccccccsccccsccscccccssccccccccccccccccccccccccccccscccccccccccccccccccccsccccccsccccccccccccccccccccsccccccccccccccccccccccsccccccccccc" />
    <g
       aria-label="!"
       style="font-style:normal;font-weight:normal;font-size:10.58333302px;line-height:1.25;font-family:sans-serif;letter-spacing:0px;word-spacing:0px;fill:#ffae1d;fill-opacity:1;stroke:none;stroke-width:0.26458332"
       id="text838"
       transform="matrix(0.90929399,0.11686983,-0.11686983,0.90929399,83.930127,48.466678)">
      <path
         d="m 90.729945,202.49478 q 0,-1.48828 1.091407,-2.1332 1.190625,-0.69453 2.678906,-0.69453 0.496094,0 0.892969,0.29766 0.396875,0.29765 0.694531,0.74414 0.297656,0.39687 0.396875,0.89297 0.148828,0.44648 0.148828,0.89296 0,0.54571 -0.396875,0.99219 -0.396875,0.44649 -0.942578,0.79375 -0.545703,0.34727 -1.190625,0.54571 -0.644922,0.14882 -1.091406,0.14882 -1.240235,0 -1.785938,-0.64492 -0.496094,-0.69453 -0.496094,-1.83555 z m 1.537891,-11.1621 q -0.198438,-1.28985 -0.297656,-3.47266 -0.04961,-2.23242 -0.09922,-4.86172 0,-2.67891 0,-5.55625 0.04961,-2.92695 0.04961,-5.55625 0,-2.67891 0,-4.86172 0,-2.28203 -0.09922,-3.57187 l 2.430859,-0.39688 0.04961,0.89297 q 0,0.89297 0,2.33164 0.04961,1.43867 0.04961,3.32383 0.04961,1.88516 0.09922,3.91914 0.04961,2.03398 0.04961,4.11758 0,2.03398 0.04961,3.81992 0.04961,1.78594 0.04961,3.175 0.04961,1.33945 0.09922,1.93477 0,0.0992 0,0.39687 0,0.24805 0,0.64492 0.04961,0.34727 0.04961,0.69453 0,0.34727 0,0.54571 0,0.39687 0,0.94257 0.04961,0.4961 -0.04961,0.99219 -0.04961,0.4961 -0.297656,0.84336 -0.248047,0.29766 -0.843359,0.29766 -0.347266,0 -0.744141,-0.0496 -0.396875,-0.0496 -0.545703,-0.5457 z"
         style="font-style:normal;font-variant:normal;font-weight:normal;font-stretch:normal;font-size:50.79999924px;font-family:'Indie Flower';-inkscape-font-specification:'Indie Flower';fill:#ffae1d;fill-opacity:1;stroke-width:0.26458332"
         id="path847"
         inkscape:connector-curvature="0" />
    </g>
  </g>
</svg>
