<?xml version="1.0" encoding="UTF-8" standalone="no"?>
<svg
   xmlns:dc="http://purl.org/dc/elements/1.1/"
   xmlns:cc="http://creativecommons.org/ns#"
   xmlns:rdf="http://www.w3.org/1999/02/22-rdf-syntax-ns#"
   xmlns:svg="http://www.w3.org/2000/svg"
   xmlns="http://www.w3.org/2000/svg"
   xmlns:sodipodi="http://sodipodi.sourceforge.net/DTD/sodipodi-0.dtd"
   xmlns:inkscape="http://www.inkscape.org/namespaces/inkscape"
   id="svg1556"
   version="1.1"
   viewBox="0 0 132.29166 34.395834"
   height="130"
   width="500"
   sodipodi:docname="bottom.svg"
   inkscape:version="0.92.4 (5da689c313, 2019-01-14)">
  <sodipodi:namedview
     pagecolor="#ffffff"
     bordercolor="#666666"
     borderopacity="1"
     objecttolerance="10"
     gridtolerance="10"
     guidetolerance="10"
     inkscape:pageopacity="0"
     inkscape:pageshadow="2"
     inkscape:window-width="3840"
     inkscape:window-height="2081"
     id="namedview10"
     showgrid="false"
     inkscape:zoom="5.904"
     inkscape:cx="217.91589"
     inkscape:cy="28.006304"
     inkscape:window-x="-9"
     inkscape:window-y="-9"
     inkscape:window-maximized="1"
     inkscape:current-layer="layer1" />
  <defs
     id="defs1550" />
  <metadata
     id="metadata1553">
    <rdf:RDF>
      <cc:Work
         rdf:about="">
        <dc:format>image/svg+xml</dc:format>
        <dc:type
           rdf:resource="http://purl.org/dc/dcmitype/StillImage" />
        <dc:title />
      </cc:Work>
    </rdf:RDF>
  </metadata>
  <g
     transform="translate(0,-262.60414)"
     id="layer1">
    <path
       style="opacity:1;fill:#8aff98;fill-opacity:1;stroke:none;stroke-width:0.9717567;stroke-linecap:butt;stroke-linejoin:round;stroke-miterlimit:4;stroke-dasharray:none;stroke-dashoffset:0;stroke-opacity:1;paint-order:normal"
       d="M -0.07790416,261.44496 H 132.56401 v 33.53142 H -0.07790416 Z"
       id="path2158" />
    <path
       id="rect2146"
       d="M -0.077903,286.9692 H 132.56401 v 10.67988 H -0.077903 Z"
       style="opacity:1;fill:#f5f5f5;fill-opacity:1;stroke:none;stroke-width:0.5484218;stroke-linecap:butt;stroke-linejoin:round;stroke-miterlimit:4;stroke-dasharray:none;stroke-dashoffset:0;stroke-opacity:1;paint-order:normal" />
    <path
       id="path2125"
       d="m 34.464652,287.04254 c 0.18698,-0.096 0.22948,-0.41056 0.36244,-0.62087 0.32693,-0.51714 0.51911,-1.19355 0.62922,-2.21461 0.0444,-0.41177 0.0743,-1.71008 0.0484,-2.10327 l -0.0173,-0.26334 -0.0814,0.05 c -0.18342,0.11259 -0.35341,0.0987 -0.63839,-0.0522 -0.19127,-0.10131 -0.29453,-0.0981 -0.65573,0.0202 -0.261,0.0854 -0.33096,0.0981 -0.62617,0.11262 -0.18279,0.009 -0.38034,0.0275 -0.439,0.041 -0.383,0.0886 -0.79598,0.11553 -1.02289,0.0668 l -0.13536,-0.0291 -0.2815,0.14923 c -0.30109,0.1596 -0.40318,0.19229 -0.49145,0.15737 -0.0984,-0.0389 -0.11927,-0.14269 -0.10172,-0.50651 0.0182,-0.37821 0.004,-0.44162 -0.11111,-0.49162 -0.11345,-0.0493 -0.14804,-0.16013 -0.18225,-0.58393 -0.0316,-0.39164 -0.0812,-0.56334 -0.17834,-0.61741 -0.0802,-0.0447 -0.25941,-0.0191 -0.42426,0.0604 -0.16362,0.079 -0.36352,0.10723 -0.46108,0.0652 -0.041,-0.0177 -0.10411,-0.0882 -0.15877,-0.17747 -0.10734,-0.17528 -0.1616,-0.21978 -0.26801,-0.21978 -0.14652,0 -0.20828,-0.0558 -0.2795,-0.25254 -0.12309,-0.34004 -0.27416,-0.46308 -0.65172,-0.53081 -0.11099,-0.0199 -0.21514,-0.0477 -0.23146,-0.0617 -0.0424,-0.0364 -0.0367,-0.10574 0.0178,-0.21697 0.0599,-0.1222 0.0602,-0.20259 0.001,-0.25832 -0.067,-0.0631 -0.30932,-0.11003 -0.58266,-0.11282 -0.40479,-0.004 -0.62592,-0.0344 -0.68276,-0.0935 -0.0654,-0.0681 -0.042,-0.12183 0.14353,-0.3289 0.14431,-0.16107 0.21875,-0.28275 0.21875,-0.35758 0,-0.0233 -0.0285,-0.0929 -0.0633,-0.15461 -0.0348,-0.0618 -0.0879,-0.2209 -0.11808,-0.35359 -0.0539,-0.23726 -0.10884,-0.35564 -0.2553,-0.55008 -0.073,-0.0969 -0.0737,-0.1006 -0.0696,-0.36698 0.005,-0.3159 0.0607,-0.60498 0.14299,-0.74065 0.0658,-0.10847 0.0555,-0.13499 -0.0696,-0.17921 -0.11011,-0.0389 -0.10585,-0.075 0.0186,-0.15708 0.0614,-0.0404 0.12712,-0.0967 0.14615,-0.12499 0.0698,-0.10368 0.10176,-0.4588 0.10185,-1.13176 5e-5,-0.38011 0.01,-0.66883 0.0235,-0.69546 0.0155,-0.0301 0.0399,-0.0411 0.072,-0.0324 0.0705,0.0191 0.14196,-0.0587 0.14196,-0.15469 0,-0.044 -0.0171,-0.16571 -0.0379,-0.2705 -0.0236,-0.11853 -0.0348,-0.2719 -0.0297,-0.40583 0.007,-0.18737 0.017,-0.22908 0.0758,-0.32152 l 0.0676,-0.10622 -0.10129,-0.20063 c -0.0937,-0.18553 -0.10193,-0.21734 -0.1098,-0.4229 -0.007,-0.18893 -2.9e-4,-0.24264 0.0461,-0.3581 l 0.0546,-0.13584 h 0.19864 c 0.2156,0 0.2338,-0.0124 0.23775,-0.16204 0.003,-0.11101 0.0802,-0.17016 0.21452,-0.16422 0.179,0.008 0.19585,-0.0213 0.21717,-0.37612 0.01,-0.16306 0.032,-0.32725 0.0493,-0.36485 0.0183,-0.0397 0.0748,-0.0897 0.13475,-0.11927 0.14088,-0.0695 0.16747,-0.13035 0.16847,-0.38587 8e-4,-0.23124 0.019,-0.26298 0.11343,-0.19924 0.12314,0.0831 0.20253,-0.002 0.31221,-0.33618 0.14277,-0.43453 0.34474,-0.67264 0.53845,-0.63484 0.0705,0.0138 0.0831,0.008 0.11581,-0.0583 0.0202,-0.0405 0.0367,-0.1 0.0367,-0.13202 0,-0.0965 0.0531,-0.14572 0.17216,-0.15969 0.10653,-0.0125 0.11187,-0.0171 0.17278,-0.15101 0.0869,-0.19086 0.19177,-0.49526 0.2268,-0.65811 0.0286,-0.13284 0.0313,-0.13616 0.11111,-0.13616 0.26825,0 0.81601,-0.23759 0.87892,-0.38124 0.0342,-0.0781 0.0941,-0.0819 0.12161,-0.008 0.0747,0.20103 0.10842,0.26549 0.13906,0.26549 0.0191,0 0.0713,-0.0334 0.11591,-0.0741 0.0921,-0.0841 0.18801,-0.0944 0.42259,-0.0454 0.121,0.0253 0.14697,0.0233 0.21773,-0.0163 0.0688,-0.0385 0.0875,-0.0701 0.13042,-0.21992 0.0477,-0.1666 0.0633,-0.18903 0.328,-0.47146 0.36033,-0.38447 0.44057,-0.50938 0.58318,-0.90782 0.0799,-0.22334 0.20899,-0.30633 0.3599,-0.23146 0.0451,0.0224 0.13839,0.085 0.20737,0.13916 0.15431,0.12122 0.20846,0.12453 0.26971,0.0166 0.0704,-0.1242 0.1901,-0.17041 0.50419,-0.19474 0.29735,-0.023 0.42092,-0.0611 0.53423,-0.1646 0.11381,-0.10397 0.20936,-0.13736 0.29945,-0.10469 0.14013,0.0508 0.21645,0.0339 0.37701,-0.0837 0.22207,-0.16268 0.23548,-0.15764 0.38112,0.14338 0.12245,0.25308 0.20639,0.31536 0.45713,0.33913 0.30913,0.0293 0.41527,0.10155 0.56497,0.38446 0.14651,0.2769 0.13016,0.27044 0.46249,0.18303 0.43431,-0.11422 0.44342,-0.11194 0.58736,0.14723 0.0461,0.0831 0.12406,0.1732 0.20197,0.23363 0.0948,0.0736 0.14659,0.13913 0.2051,0.25989 0.0968,0.19971 0.15501,0.259 0.23016,0.23428 0.0303,-0.01 0.13093,-0.0946 0.22359,-0.18796 0.14561,-0.14679 0.18592,-0.17365 0.29699,-0.19788 0.24891,-0.0543 0.39386,0.0235 0.44616,0.2396 0.0306,0.12636 0.066,0.13723 0.23971,0.0734 0.0555,-0.0204 0.13988,-0.037 0.18749,-0.037 0.18071,0 0.35392,0.24645 0.4513,0.64211 0.0756,0.30717 0.0799,0.31167 0.25802,0.27014 0.0609,-0.0142 0.13419,-0.0197 0.16295,-0.0122 0.0841,0.022 0.19042,0.12936 0.28018,0.28309 0.046,0.0787 0.12686,0.17432 0.17977,0.21247 0.0839,0.0605 0.4264,0.18494 0.50899,0.18494 0.0161,0 0.0923,0.0424 0.16942,0.0942 0.183,0.12303 0.27026,0.15273 0.44864,0.15273 0.17509,0 0.18191,0.007 0.31799,0.28961 0.0536,0.11175 0.12173,0.21965 0.15127,0.2398 0.0295,0.0202 0.12749,0.0544 0.21765,0.0761 0.0902,0.0218 0.18473,0.0547 0.21016,0.0733 0.0603,0.044 0.12545,0.15691 0.15911,0.27579 0.0306,0.10813 0.0654,0.65709 0.0871,1.37528 0.0147,0.48715 0.0152,0.49029 0.0765,0.54951 0.034,0.0327 0.0707,0.0596 0.0817,0.0596 0.011,0 0.0765,0.039 0.14559,0.0868 0.23267,0.16068 0.3205,0.37396 0.32121,0.78001 4e-4,0.23818 -0.0228,0.19156 0.33125,0.66633 0.31859,0.42729 0.3401,0.65998 0.0866,0.9365 -0.13895,0.15155 -0.17078,0.22751 -0.14705,0.35097 0.0177,0.0919 0.13673,0.31166 0.29832,0.55057 0.1761,0.26036 0.21467,0.3541 0.21452,0.52134 -1.5e-4,0.22944 -0.0348,0.32593 -0.1255,0.35021 -0.10284,0.0275 -0.13247,0.12479 -0.13416,0.44054 -0.002,0.30488 -0.0151,0.32483 -0.18937,0.28133 -0.21253,-0.053 -0.27219,0.006 -0.29798,0.29544 -0.0269,0.30165 -0.10171,0.43536 -0.2774,0.49569 -0.2408,0.0827 -0.30372,0.24395 -0.3271,0.8384 -0.009,0.23771 -0.0255,0.45206 -0.0359,0.47633 -0.0232,0.0543 -0.11506,0.1044 -0.23199,0.12643 -0.11606,0.0219 -0.21753,0.11351 -0.26644,0.24068 -0.0319,0.083 -0.0393,0.18752 -0.0381,0.54394 10e-4,0.33697 -0.007,0.46196 -0.0339,0.529 -0.0194,0.0482 -0.16632,0.22863 -0.32651,0.40081 l -0.29128,0.31304 -0.15095,0.0167 c -0.19361,0.0215 -0.24976,0.0747 -0.31342,0.29709 -0.0634,0.22137 -0.14613,0.31775 -0.32256,0.37561 -0.0912,0.0299 -0.16285,0.0736 -0.2118,0.12922 -0.0816,0.0927 -0.18243,0.13218 -0.33761,0.13218 -0.1838,0 -0.23501,0.0498 -0.35547,0.34603 -0.0916,0.22512 -0.28259,0.34523 -0.54981,0.34573 -0.15952,2.9e-4 -0.32247,0.0735 -0.47649,0.21405 -0.26184,0.23896 -0.3092,0.24083 -0.51297,0.0204 -0.16945,-0.18336 -0.20664,-0.19297 -0.43042,-0.11114 -0.16928,0.0618 -0.28179,0.0641 -0.3116,0.006 -0.0123,-0.0238 -0.0299,-0.0963 -0.0393,-0.16122 -0.0279,-0.19362 -0.0659,-0.19647 -0.37652,-0.0282 -0.21818,0.11822 -0.28516,0.14331 -0.38611,0.1446 -0.10328,9.5e-4 -0.13684,-0.0108 -0.21744,-0.0781 -0.14798,-0.12365 -0.24757,-0.13605 -0.63091,-0.0786 -0.18123,0.0271 -0.39489,0.0537 -0.47477,0.0589 l -0.14526,0.01 -0.015,0.15601 c -0.008,0.0858 -0.016,0.42274 -0.0172,0.74874 -0.005,1.35114 0.11926,2.37591 0.37781,3.11967 0.15314,0.44051 0.41832,1.06383 0.67866,1.27792 0,0 -2.2545,0.0229 -2.96522,0.006 z"
       style="fill:#f5f5f5;fill-opacity:1;stroke-width:0.02421322"
       inkscape:connector-curvature="0" />
    <path
       style="fill:#f5f5f5;fill-opacity:1;stroke-width:0.01077357"
       d="m 52.39858,286.99093 c -0.004,-0.006 0.003,-0.011 0.0148,-0.011 0.0313,0 0.11288,-0.0298 0.19033,-0.0695 0.0832,-0.0427 0.21631,-0.17013 0.27547,-0.26371 0.14546,-0.2301 0.23097,-0.53107 0.27997,-0.98538 0.0198,-0.18322 0.0331,-0.7609 0.0215,-0.93584 l -0.008,-0.11718 -0.0362,0.0223 c -0.0816,0.05 -0.15725,0.0439 -0.28405,-0.0233 -0.0851,-0.0451 -0.13105,-0.0437 -0.29176,0.009 -0.11614,0.0381 -0.14727,0.0437 -0.27862,0.0501 -0.0813,0.004 -0.16923,0.0123 -0.19533,0.0183 -0.17041,0.0394 -0.35417,0.0514 -0.45513,0.0297 l -0.0602,-0.0129 -0.12525,0.0664 c -0.13397,0.071 -0.17939,0.0855 -0.21867,0.07 -0.0438,-0.0173 -0.0531,-0.0635 -0.0453,-0.22536 0.008,-0.16829 0.002,-0.1965 -0.0494,-0.21875 -0.0505,-0.022 -0.0659,-0.0713 -0.0811,-0.25982 -0.014,-0.17426 -0.0361,-0.25065 -0.0794,-0.27472 -0.0357,-0.0199 -0.11542,-0.009 -0.18877,0.0268 -0.0728,0.0351 -0.16175,0.0478 -0.20516,0.029 -0.0182,-0.008 -0.0463,-0.0393 -0.0706,-0.079 -0.0478,-0.078 -0.0719,-0.0978 -0.11925,-0.0978 -0.0652,0 -0.0927,-0.0248 -0.12437,-0.11238 -0.0548,-0.15129 -0.12198,-0.20603 -0.28998,-0.23617 -0.0494,-0.009 -0.0957,-0.0212 -0.10298,-0.0274 -0.0189,-0.0162 -0.0163,-0.047 0.008,-0.0965 0.0267,-0.0543 0.0268,-0.0901 4e-4,-0.11494 -0.0298,-0.0281 -0.13763,-0.049 -0.25925,-0.0502 -0.18011,-0.002 -0.2785,-0.0153 -0.3038,-0.0417 -0.0291,-0.0304 -0.0187,-0.0542 0.0639,-0.14635 0.0642,-0.0716 0.0973,-0.12582 0.0973,-0.15911 0,-0.0104 -0.0127,-0.0413 -0.0282,-0.0688 -0.0155,-0.0275 -0.0391,-0.0983 -0.0525,-0.15733 -0.024,-0.10556 -0.0484,-0.15824 -0.11359,-0.24475 -0.0325,-0.0431 -0.0328,-0.0447 -0.031,-0.1633 0.002,-0.14055 0.027,-0.26917 0.0636,-0.32954 0.0293,-0.0482 0.0247,-0.06 -0.031,-0.0797 -0.049,-0.0173 -0.0471,-0.0334 0.008,-0.0699 0.0273,-0.018 0.0566,-0.043 0.065,-0.0557 0.0311,-0.0462 0.0453,-0.20414 0.0453,-0.50357 2e-5,-0.16913 0.004,-0.29759 0.0104,-0.30944 0.007,-0.0133 0.0178,-0.0183 0.0321,-0.0144 0.0313,0.009 0.0632,-0.0261 0.0632,-0.0688 0,-0.0196 -0.008,-0.0737 -0.0169,-0.12036 -0.0105,-0.0527 -0.0155,-0.12098 -0.0132,-0.18057 0.003,-0.0833 0.008,-0.10192 0.0337,-0.14306 l 0.0301,-0.0473 -0.0451,-0.0892 c -0.0417,-0.0826 -0.0453,-0.0967 -0.0489,-0.18817 -0.003,-0.084 -9e-5,-0.10796 0.0205,-0.15933 l 0.0243,-0.0604 h 0.0884 c 0.0959,0 0.10403,-0.006 0.10579,-0.0721 10e-4,-0.0494 0.0357,-0.0757 0.0954,-0.0731 0.0797,0.004 0.0872,-0.01 0.0966,-0.16735 0.004,-0.0726 0.0143,-0.14562 0.0219,-0.16234 0.008,-0.0177 0.0333,-0.04 0.06,-0.0531 0.0627,-0.0309 0.0745,-0.058 0.075,-0.17168 4e-4,-0.10289 0.008,-0.11701 0.0505,-0.0887 0.0548,0.037 0.0901,-9.5e-4 0.13892,-0.14957 0.0635,-0.19334 0.15339,-0.2993 0.23958,-0.28248 0.0314,0.006 0.037,0.004 0.0515,-0.026 0.009,-0.0181 0.0163,-0.0445 0.0163,-0.0587 0,-0.0429 0.0236,-0.0648 0.0766,-0.0711 0.0474,-0.006 0.0498,-0.008 0.0769,-0.0672 0.0387,-0.085 0.0853,-0.22037 0.10091,-0.29282 0.0127,-0.0591 0.0139,-0.0606 0.0494,-0.0606 0.11936,0 0.36309,-0.10572 0.39108,-0.16964 0.0152,-0.0347 0.0418,-0.0364 0.0541,-0.004 0.0332,0.0894 0.0482,0.11813 0.0619,0.11813 0.008,0 0.0317,-0.0148 0.0516,-0.0329 0.041,-0.0374 0.0837,-0.0421 0.18803,-0.0202 0.0538,0.0112 0.0654,0.0104 0.0969,-0.008 0.0306,-0.0172 0.0389,-0.0312 0.058,-0.0978 0.0212,-0.0741 0.0282,-0.0841 0.14594,-0.20977 0.16033,-0.17106 0.19603,-0.22665 0.25949,-0.40393 0.0356,-0.0994 0.093,-0.1363 0.16013,-0.10299 0.02,0.01 0.0616,0.0378 0.0923,0.0619 0.0687,0.054 0.0927,0.0554 0.12,0.008 0.0313,-0.0553 0.0846,-0.0758 0.22434,-0.0867 0.13231,-0.0103 0.18729,-0.0272 0.2377,-0.0733 0.0506,-0.0462 0.0931,-0.0611 0.13324,-0.0466 0.0623,0.0226 0.0963,0.0151 0.16775,-0.0373 0.0988,-0.0724 0.10478,-0.0701 0.16958,0.0639 0.0545,0.1126 0.0918,0.14031 0.2034,0.15089 0.13754,0.013 0.18477,0.0452 0.25138,0.17106 0.0652,0.12321 0.0579,0.12033 0.20579,0.0814 0.19324,-0.0508 0.19729,-0.0498 0.26134,0.0655 0.0205,0.037 0.0552,0.0771 0.0899,0.10395 0.0422,0.0327 0.0652,0.062 0.0913,0.11564 0.043,0.0889 0.069,0.11524 0.10241,0.10424 0.0135,-0.005 0.0583,-0.042 0.0995,-0.0836 0.0648,-0.0653 0.0827,-0.0773 0.13214,-0.088 0.11076,-0.0242 0.17525,0.0105 0.19852,0.10661 0.0136,0.0562 0.0294,0.0611 0.10666,0.0327 0.0247,-0.01 0.0622,-0.0165 0.0834,-0.0165 0.0804,0 0.15747,0.10966 0.2008,0.28571 0.0337,0.13667 0.0355,0.13867 0.11481,0.12019 0.0271,-0.007 0.0597,-0.009 0.0725,-0.006 0.0374,0.01 0.0847,0.0576 0.12466,0.12597 0.0204,0.035 0.0564,0.0775 0.08,0.0945 0.0373,0.0269 0.18973,0.0823 0.22647,0.0823 0.007,0 0.0411,0.0188 0.0754,0.042 0.0814,0.0547 0.12026,0.0679 0.19963,0.0679 0.0779,0 0.0809,0.003 0.14148,0.12886 0.0239,0.0498 0.0542,0.0977 0.0673,0.10669 0.0132,0.009 0.0567,0.0243 0.0968,0.0339 0.0401,0.01 0.0822,0.0243 0.0935,0.0326 0.0268,0.0195 0.0558,0.0698 0.0708,0.12271 0.0136,0.0482 0.0291,0.29237 0.0387,0.61192 0.007,0.21675 0.007,0.21815 0.0341,0.2445 0.0151,0.0146 0.0315,0.0265 0.0363,0.0265 0.005,0 0.0341,0.0173 0.0648,0.0386 0.10353,0.0715 0.14261,0.16639 0.14292,0.34706 1.5e-4,0.10598 -0.0101,0.0853 0.14739,0.29649 0.14176,0.19011 0.15133,0.29364 0.0385,0.41668 -0.0618,0.0675 -0.076,0.10124 -0.0654,0.15616 0.008,0.0409 0.0608,0.13868 0.13273,0.24498 0.0784,0.11585 0.0955,0.15756 0.0954,0.23197 -7e-5,0.10209 -0.0155,0.14502 -0.0558,0.15582 -0.0458,0.0123 -0.0589,0.0556 -0.0597,0.19602 -8e-4,0.13565 -0.007,0.14454 -0.0843,0.12517 -0.0946,-0.0236 -0.12111,0.003 -0.13258,0.13146 -0.012,0.13422 -0.0453,0.19371 -0.12343,0.22055 -0.10714,0.0368 -0.13514,0.10855 -0.14554,0.37305 -0.004,0.10577 -0.0113,0.20114 -0.016,0.21194 -0.0103,0.0242 -0.0512,0.0464 -0.10323,0.0562 -0.0516,0.01 -0.0968,0.0505 -0.11854,0.10709 -0.0142,0.0369 -0.0174,0.0835 -0.017,0.24203 4e-4,0.14993 -0.003,0.20555 -0.0151,0.23537 -0.009,0.0215 -0.074,0.10173 -0.14529,0.17834 l -0.1296,0.13929 -0.0672,0.008 c -0.0862,0.01 -0.11113,0.0332 -0.13945,0.13219 -0.0282,0.0985 -0.065,0.14137 -0.14352,0.16712 -0.0406,0.0133 -0.0725,0.0327 -0.0943,0.0575 -0.0363,0.0413 -0.0812,0.0588 -0.15022,0.0588 -0.0818,0 -0.10457,0.0222 -0.15816,0.15397 -0.0407,0.10016 -0.12574,0.1536 -0.24464,0.15382 -0.071,1e-4 -0.14348,0.0327 -0.21201,0.0952 -0.1165,0.10633 -0.13757,0.10717 -0.22825,0.009 -0.0754,-0.0815 -0.0919,-0.0858 -0.19151,-0.0495 -0.0753,0.0275 -0.12537,0.0285 -0.13864,0.003 -0.005,-0.0106 -0.0133,-0.0428 -0.0174,-0.0717 -0.0124,-0.0862 -0.0293,-0.0874 -0.16754,-0.0126 -0.0971,0.0526 -0.12688,0.0637 -0.17179,0.0643 -0.046,3.7e-4 -0.0609,-0.005 -0.0968,-0.0347 -0.0658,-0.055 -0.11016,-0.0605 -0.28072,-0.0349 -0.0806,0.0121 -0.1757,0.0239 -0.21125,0.0263 l -0.0646,0.004 -0.007,0.0695 c -0.004,0.0381 -0.007,0.1881 -0.008,0.33314 -0.002,0.60119 0.0531,1.05715 0.16811,1.38808 0.0681,0.19602 0.19052,0.38978 0.30635,0.48503 0.0662,0.0544 0.18732,0.11714 0.26076,0.13503 0.0305,0.008 0.0554,0.0173 0.0554,0.0219 0,0.013 -1.95159,0.0105 -1.95935,-0.003 z"
       id="path2127"
       inkscape:connector-curvature="0" />
  </g>
</svg>
