<?xml version="1.0" encoding="UTF-8" standalone="no"?>
<svg
   xmlns:dc="http://purl.org/dc/elements/1.1/"
   xmlns:cc="http://creativecommons.org/ns#"
   xmlns:rdf="http://www.w3.org/1999/02/22-rdf-syntax-ns#"
   xmlns:svg="http://www.w3.org/2000/svg"
   xmlns="http://www.w3.org/2000/svg"
   xmlns:sodipodi="http://sodipodi.sourceforge.net/DTD/sodipodi-0.dtd"
   xmlns:inkscape="http://www.inkscape.org/namespaces/inkscape"
   width="140px"
   height="143px"
   viewBox="0 0 140 143"
   version="1.1"
   id="svg32"
   sodipodi:docname="icon_01b.svg"
   inkscape:version="0.92.4 (5da689c313, 2019-01-14)">
  <metadata
     id="metadata36">
    <rdf:RDF>
      <cc:Work
         rdf:about="">
        <dc:format>image/svg+xml</dc:format>
        <dc:type
           rdf:resource="http://purl.org/dc/dcmitype/StillImage" />
        <dc:title>icon-5</dc:title>
      </cc:Work>
    </rdf:RDF>
  </metadata>
  <sodipodi:namedview
     pagecolor="#ffffff"
     bordercolor="#666666"
     borderopacity="1"
     objecttolerance="10"
     gridtolerance="10"
     guidetolerance="10"
     inkscape:pageopacity="0"
     inkscape:pageshadow="2"
     inkscape:window-width="3200"
     inkscape:window-height="1721"
     id="namedview34"
     showgrid="false"
     inkscape:zoom="9.3357874"
     inkscape:cx="37.319435"
     inkscape:cy="58.964507"
     inkscape:window-x="-9"
     inkscape:window-y="2151"
     inkscape:window-maximized="1"
     inkscape:current-layer="svg32" />
  <!-- Generator: Sketch 55.1 (78136) - https://sketchapp.com -->
  <title
     id="title2">icon-5</title>
  <desc
     id="desc4">Created with Sketch.</desc>
  <defs
     id="defs11">
    <marker
       inkscape:stockid="DiamondL"
       orient="auto"
       refY="0.0"
       refX="0.0"
       id="DiamondL"
       style="overflow:visible"
       inkscape:isstock="true">
      <path
         id="path905"
         d="M 0,-7.0710768 L -7.0710894,0 L 0,7.0710589 L 7.0710462,0 L 0,-7.0710768 z "
         style="fill-rule:evenodd;stroke:#000000;stroke-width:1pt;stroke-opacity:1;fill:#000000;fill-opacity:1"
         transform="scale(0.8)" />
    </marker>
    <marker
       inkscape:stockid="Arrow1Lend"
       orient="auto"
       refY="0.0"
       refX="0.0"
       id="Arrow1Lend"
       style="overflow:visible;"
       inkscape:isstock="true">
      <path
         id="path829"
         d="M 0.0,0.0 L 5.0,-5.0 L -12.5,0.0 L 5.0,5.0 L 0.0,0.0 z "
         style="fill-rule:evenodd;stroke:#000000;stroke-width:1pt;stroke-opacity:1;fill:#000000;fill-opacity:1"
         transform="scale(0.8) rotate(180) translate(12.5,0)" />
    </marker>
    <linearGradient
       x1="98.012229"
       y1="38.932289"
       x2="98.012229"
       y2="168.39957"
       id="linearGradient-1"
       gradientTransform="matrix(0.8866642,0.37636662,-0.40564389,0.95563712,22.556505,-57.975754)"
       gradientUnits="userSpaceOnUse">
      <stop
         stop-color="#000000"
         stop-opacity="0"
         offset="0%"
         id="stop6" />
      <stop
         stop-color="#000000"
         stop-opacity="0.479130245"
         offset="100%"
         id="stop8" />
    </linearGradient>
  </defs>
  <path
     sodipodi:nodetypes="ccccc"
     inkscape:connector-curvature="0"
     id="path1174"
     d="m 12.446749,127.37745 13.455265,-10.13402 -4.202903,14.9444 -3.079302,-4.05894 z"
     style="fill:#5c5c5c;fill-opacity:1;fill-rule:nonzero;stroke:#5c5c5c;stroke-width:1.13600004;stroke-linecap:round;stroke-linejoin:round;stroke-miterlimit:4;stroke-dasharray:none;stroke-opacity:1" />
  <ellipse
     ry="13.659925"
     rx="16.531118"
     cy="125.40605"
     cx="21.202881"
     id="path1193"
     style="opacity:1;fill:none;fill-opacity:1;fill-rule:nonzero;stroke:#5c5c5c;stroke-width:5.40199995;stroke-linecap:round;stroke-linejoin:round;stroke-miterlimit:4;stroke-dasharray:none;stroke-dashoffset:16.79999924;stroke-opacity:1;paint-order:normal" />
  <path
     style="color:#000000;font-style:normal;font-variant:normal;font-weight:normal;font-stretch:normal;font-size:medium;line-height:normal;font-family:sans-serif;font-variant-ligatures:normal;font-variant-position:normal;font-variant-caps:normal;font-variant-numeric:normal;font-variant-alternates:normal;font-feature-settings:normal;text-indent:0;text-align:start;text-decoration:none;text-decoration-line:none;text-decoration-style:solid;text-decoration-color:#000000;letter-spacing:normal;word-spacing:normal;text-transform:none;writing-mode:lr-tb;direction:ltr;text-orientation:mixed;dominant-baseline:auto;baseline-shift:baseline;text-anchor:start;white-space:normal;shape-padding:0;clip-rule:nonzero;display:inline;overflow:visible;visibility:visible;opacity:1;isolation:auto;mix-blend-mode:normal;color-interpolation:sRGB;color-interpolation-filters:linearRGB;solid-color:#000000;solid-opacity:1;vector-effect:none;fill:#5c5c5c;fill-opacity:1;fill-rule:nonzero;stroke:none;stroke-width:5.22422171;stroke-linecap:butt;stroke-linejoin:round;stroke-miterlimit:3.0999999;stroke-dasharray:20.8968874, 5.22422185;stroke-dashoffset:0;stroke-opacity:1;color-rendering:auto;image-rendering:auto;shape-rendering:auto;text-rendering:auto;enable-background:accumulate"
     d="m 105.7832,51.375 -1.02929,1.435547 -0.01,0.01367 -1.02148,1.318359 -0.0195,0.02539 -1.03124,1.240234 -1.10157,1.230469 -0.0176,0.01953 -1.07812,1.121094 -1.091798,1.058594 -0.02734,0.02539 -1.121094,1.011719 -0.01758,0.01563 -1.164063,0.978516 3.363285,3.998047 1.18164,-0.994141 0.0684,-0.05859 1.21679,-1.099609 0.0684,-0.0625 1.19531,-1.158203 0.0645,-0.06445 1.17383,-1.220704 0.0625,-0.06836 1.14843,-1.283203 0.0606,-0.07227 1.12305,-1.349609 0.0586,-0.07227 1.0957,-1.419922 0.0566,-0.07422 1.06836,-1.488282 0.0508,-0.07617 c 0,0 1.12675,-0.942558 1.04101,-1.5625 -0.19787,-1.430814 -1.84848,-2.74803 -3.29118,-2.81879 -0.84336,-0.04136 -2.07595,1.451604 -2.07595,1.451604 z m -14.853512,13.699219 -2.550782,1.382812 -2.65039,1.261719 -2.681641,1.126953 -0.02734,0.01172 -2.61914,0.980469 -0.01953,0.0059 -2.792968,0.943359 -2.705079,0.833985 -0.208984,0.06055 1.441406,5.021484 0.208985,-0.06055 0.04883,-0.01367 2.820312,-0.86914 0.06641,-0.02148 2.8125,-0.949219 0.08008,-0.0293 2.796875,-1.048828 0.0957,-0.03711 2.767578,-1.164062 0.109375,-0.04883 2.734375,-1.300782 0.119141,-0.0625 2.6875,-1.453125 0.130859,-0.07617 2.287109,-1.412109 -2.746093,-4.445312 z m -24.421876,8.851562 -0.0039,0.002 -5.478515,1.486328 -0.05078,0.01367 -2.671875,0.78125 -0.05859,0.01758 -2.613282,0.830079 -0.08008,0.02734 -2.546875,0.900391 -0.09961,0.03711 -2.470703,0.986328 -0.119141,0.05273 -0.947265,0.433594 2.177734,4.748047 0.892578,-0.408204 2.365234,-0.943359 2.490235,-0.880859 2.476562,-0.78711 0.04102,-0.01172 0.01758,-0.0059 2.564453,-0.75 0.0293,-0.0078 0.01953,-0.0059 5.425782,-1.470703 0.0039,-0.002 3.169922,-0.853516 -1.357422,-5.044922 z m -23.347656,8.962891 -0.123047,0.08203 -1.052734,0.740235 -0.08398,0.0625 -1.021485,0.783203 -0.08594,0.06836 -0.990235,0.828125 -0.08789,0.07422 -0.958985,0.876953 -0.08398,0.08008 -0.925781,0.925781 -0.08398,0.08594 -0.890625,0.978515 -0.08008,0.0918 -0.857422,1.03125 -0.07617,0.0957 -0.820312,1.087891 -0.07031,0.101562 -0.783204,1.146485 -0.06641,0.103515 -0.742187,1.208985 -0.0625,0.103515 -0.701172,1.271485 -0.05664,0.105469 -0.660156,1.33789 -0.04883,0.105469 -0.619141,1.40625 -0.04297,0.105469 -0.576172,1.476562 4.867188,1.896479 0.556641,-1.423823 0.568359,-1.294921 0.609375,-1.232422 0.666016,-1.205078 0.01172,-0.02148 0.642579,-1.041015 0.714843,-1.050782 0.751953,-1 0.779297,-0.935547 0.804688,-0.882812 0.798828,-0.800781 0.02148,-0.01953 0.88086,-0.804688 0.925781,-0.773438 0.939453,-0.720703 0.929687,-0.654297 1.242188,-0.771484 -2.761719,-4.435547 z"
     id="path824"
     inkscape:connector-curvature="0"
     sodipodi:nodetypes="cccccccccccccccccccccccccccccccaacccccccccccccccccccccccccccccccccccccccccccccccccccccccccaccccccccccccccccccccccccccccccccccccccccccccccca" />
  <path
     sodipodi:nodetypes="cccccccc"
     inkscape:connector-curvature="0"
     id="path1208"
     d="m 138.68984,15.696859 c -0.0936,-0.08091 -0.19485,-0.15261 -0.30231,-0.214007 L 125.13518,9.9084603 c -1.28053,-0.7292808 -1.78823,0.3820667 -1.77866,1.8556717 l 0.0729,11.093011 c 0.01,1.472921 0.61841,2.292869 1.88925,1.548198 l 13.09026,-5.607968 c 1.13189,-0.663855 1.27507,-2.244045 0.28092,-3.100514 z"
     style="color:#000000;font-style:normal;font-variant:normal;font-weight:normal;font-stretch:normal;font-size:medium;line-height:normal;font-family:sans-serif;font-variant-ligatures:normal;font-variant-position:normal;font-variant-caps:normal;font-variant-numeric:normal;font-variant-alternates:normal;font-feature-settings:normal;text-indent:0;text-align:start;text-decoration:none;text-decoration-line:none;text-decoration-style:solid;text-decoration-color:#000000;letter-spacing:normal;word-spacing:normal;text-transform:none;writing-mode:lr-tb;direction:ltr;text-orientation:mixed;dominant-baseline:auto;baseline-shift:baseline;text-anchor:start;white-space:normal;shape-padding:0;clip-rule:nonzero;display:inline;overflow:visible;visibility:visible;opacity:1;isolation:auto;mix-blend-mode:normal;color-interpolation:sRGB;color-interpolation-filters:linearRGB;solid-color:#000000;solid-opacity:1;vector-effect:none;fill:#5c5c5c;fill-opacity:1;fill-rule:nonzero;stroke:none;stroke-width:3.82690573;stroke-linecap:butt;stroke-linejoin:round;stroke-miterlimit:3.0999999;stroke-dasharray:none;stroke-dashoffset:16.79999924;stroke-opacity:1;paint-order:normal;color-rendering:auto;image-rendering:auto;shape-rendering:auto;text-rendering:auto;enable-background:accumulate" />
  <path
     style="fill:none;stroke:#5c5c5c;stroke-width:4.0404439;stroke-linecap:butt;stroke-linejoin:round;stroke-miterlimit:4;stroke-dasharray:none;stroke-opacity:1"
     d="M 118.91678,9.6734822 V 40.085151"
     id="path1210"
     inkscape:connector-curvature="0"
     sodipodi:nodetypes="cc" />
</svg>
